<svg xmlns="http://www.w3.org/2000/svg" version="1.1" width="582" height="522" viewBox="0 0 194 174" fill="#e1effd">
<defs>
<clipPath id="clip_1">
<path transform="matrix(1,0,0,-1,-201,747.92)" d="M201 573.92H395V747.92H201Z" clip-rule="evenodd" />
</clipPath>
<clipPath id="clip_2">
<path transform="matrix(.24,0,0,.24,-201,-94)" d="M118.75 118.75H2362.793V3390.8204H118.75Z" clip-rule="evenodd" />
</clipPath>
<clipPath id="clip_3">
<path transform="matrix(.24,0,0,.24,-201,-94)" d="M118.75 118.75H2362.793V3390.8204H118.75Z" />
</clipPath>
<clipPath id="clip_4">
<path transform="matrix(.24,0,0,.24,-201,-94)" d="M503.125 170.3125C503.12498 167.20449 503.71965 164.21477 504.909 161.34334 506.09837 158.47193 507.7919 155.93737 509.98963 153.73969 512.1873 151.54199 514.72189 149.84845 517.5933 148.65906 520.4647 147.46968 523.4544 146.875 526.5625 146.875 529.6705 146.875 532.66018 147.46968 535.53158 148.65906 538.40298 149.84845 540.93759 151.54199 543.13528 153.73969 545.33297 155.93737 547.0264 158.47193 548.2158 161.34334 549.4052 164.21477 549.99996 167.20449 550 170.3125 549.99996 173.4205 549.4052 176.41022 548.2158 179.28163 547.0264 182.15305 545.33297 184.6876 543.13528 186.88532 540.93759 189.083 538.40298 190.77652 535.53158 191.96593 532.66018 193.1553 529.6705 193.74999 526.5625 193.75 523.4544 193.74999 520.46469 193.15529 517.59329 191.9659 514.72189 190.77652 512.1873 189.083 509.98963 186.88532 507.7919 184.6876 506.09837 182.15305 504.909 179.28163 503.71965 176.41022 503.12498 173.4205 503.125 170.3125Z" />
</clipPath>
<clipPath id="clip_5">
<path transform="matrix(.24,0,0,.24,-201,-94)" d="M118.75 118.75H2362.793V3390.8204H118.75Z" clip-rule="evenodd" />
</clipPath>
<clipPath id="clip_6">
<path transform="matrix(.24,0,0,.24,-201,-94)" d="M846.875 400H1637.5V1103.125H846.875Z" clip-rule="evenodd" />
</clipPath>
<clipPath id="clip_7">
<path transform="matrix(.24,0,0,.24,-201,-94)" d="M1853.125 1271.875H2318.75V1693.75H1853.125Z" clip-rule="evenodd" />
</clipPath>
<clipPath id="clip_8">
<path transform="matrix(.24,0,0,.24,-201,-94)" d="M118.75 118.75H2362.793V3390.8204H118.75Z" clip-rule="evenodd" />
</clipPath>
<clipPath id="clip_9">
<path transform="matrix(.24,0,0,.24,-201,-94)" d="M118.75 118.75H2362.793V3390.8204H118.75Z" />
</clipPath>
<clipPath id="clip_10">
<path transform="matrix(.24,0,0,.24,-201,-94)" d="M503.125 1201.5625C503.12498 1198.4545 503.71965 1195.4646 504.909 1192.5932 506.09837 1189.7217 507.7919 1187.1873 509.98963 1184.9896 512.1873 1182.7919 514.72189 1181.0983 517.5933 1179.9089 520.4647 1178.7196 523.4544 1178.125 526.5625 1178.125 529.6705 1178.125 532.66018 1178.7196 535.53158 1179.9089 538.40298 1181.0983 540.93759 1182.7919 543.13528 1184.9896 545.33297 1187.1873 547.0264 1189.7217 548.2158 1192.5932 549.4052 1195.4646 549.99996 1198.4545 550 1201.5625 549.99996 1204.6704 549.4052 1207.66 548.2158 1210.5315 547.0264 1213.403 545.33297 1215.9375 543.13528 1218.1353 540.93759 1220.3329 538.40298 1222.0264 535.53158 1223.2157 532.66018 1224.4052 529.6705 1224.9999 526.5625 1225 523.4544 1224.9999 520.46469 1224.4052 517.59329 1223.2157 514.72189 1222.0264 512.1873 1220.3329 509.98963 1218.1353 507.7919 1215.9375 506.09837 1213.403 504.909 1210.5315 503.71965 1207.66 503.12498 1204.6704 503.125 1201.5625Z" />
</clipPath>
<clipPath id="clip_11">
<path transform="matrix(.24,0,0,.24,-201,-94)" d="M118.75 118.75H2362.793V3390.8204H118.75Z" clip-rule="evenodd" />
</clipPath>
<clipPath id="clip_12">
<path transform="matrix(.24,0,0,.24,-201,-94)" d="M118.75 118.75H2362.793V3390.8204H118.75Z" />
</clipPath>
<clipPath id="clip_13">
<path transform="matrix(.24,0,0,.24,-201,-94)" d="M503.125 1839.0625C503.12498 1835.9544 503.71965 1832.9646 504.909 1830.0932 506.09837 1827.2218 507.7919 1824.6873 509.98963 1822.4896 512.1873 1820.2919 514.72189 1818.5983 517.5933 1817.4089 520.4647 1816.2196 523.4544 1815.625 526.5625 1815.625 529.6705 1815.625 532.66018 1816.2197 535.53158 1817.409 538.40298 1818.5984 540.93759 1820.2919 543.13528 1822.4896 545.33297 1824.6873 547.0264 1827.2218 548.2158 1830.0932 549.4052 1832.9646 549.99996 1835.9544 550 1839.0625 549.99996 1842.1704 549.4052 1845.16 548.2158 1848.0314 547.0264 1850.9027 545.33297 1853.4373 543.13528 1855.6351 540.93759 1857.8328 538.40298 1859.5264 535.53158 1860.7157 532.66018 1861.905 529.6705 1862.4999 526.5625 1862.5 523.4544 1862.4999 520.46469 1861.905 517.59329 1860.7157 514.72189 1859.5264 512.1873 1857.8328 509.98963 1855.6351 507.7919 1853.4373 506.09837 1850.9027 504.909 1848.0314 503.71965 1845.16 503.12498 1842.1704 503.125 1839.0625Z" />
</clipPath>
<clipPath id="clip_14">
<path transform="matrix(.24,0,0,.24,-201,-94)" d="M118.75 118.75H2362.793V3390.8204H118.75Z" clip-rule="evenodd" />
</clipPath>
<clipPath id="clip_15">
<path transform="matrix(.24,0,0,.24,-201,-94)" d="M721.875 2015.625H1765.625V2309.375H721.875Z" clip-rule="evenodd" />
</clipPath>
<clipPath id="clip_16">
<path transform="matrix(.24,0,0,.24,-201,-94)" d="M118.75 118.75H2362.793V3390.8204H118.75Z" clip-rule="evenodd" />
</clipPath>
<clipPath id="clip_17">
<path transform="matrix(.24,0,0,.24,-201,-94)" d="M1850 2562.5H2318.75V3137.5H1850Z" clip-rule="evenodd" />
</clipPath>
<clipPath id="clip_18">
<path transform="matrix(.24,0,0,.24,-201,-94)" d="M118.75 118.75H2362.793V3390.8204H118.75Z" clip-rule="evenodd" />
</clipPath>
<clipPath id="clip_19">
<path transform="matrix(.24,0,0,.24,-201,-94)" d="M118.75 118.75H2362.793V3390.8204H118.75Z" />
</clipPath>
<clipPath id="clip_20">
<path transform="matrix(.24,0,0,.24,-201,-94)" d="M503.125 2492.1876C503.12498 2489.0794 503.71965 2486.0897 504.909 2483.2183 506.09837 2480.3468 507.7919 2477.812 509.98963 2475.6146 512.1873 2473.4168 514.72189 2471.7232 517.5933 2470.5338 520.4647 2469.3446 523.4544 2468.75 526.5625 2468.75 529.6705 2468.75 532.66018 2469.3446 535.53158 2470.5338 538.40298 2471.7232 540.93759 2473.4168 543.13528 2475.6146 545.33297 2477.812 547.0264 2480.3468 548.2158 2483.2183 549.4052 2486.0897 549.99996 2489.0794 550 2492.1876 549.99996 2495.2955 549.4052 2498.285 548.2158 2501.1563 547.0264 2504.0277 545.33297 2506.5623 543.13528 2508.76 540.93759 2510.9576 538.40298 2512.6512 535.53158 2513.8406 532.66018 2515.03 529.6705 2515.6248 526.5625 2515.625 523.4544 2515.6248 520.46469 2515.03 517.59329 2513.8406 514.72189 2512.6512 512.1873 2510.9576 509.98963 2508.76 507.7919 2506.5623 506.09837 2504.0277 504.909 2501.1563 503.71965 2498.285 503.12498 2495.2955 503.125 2492.1876Z" />
</clipPath>
<clipPath id="clip_21">
<path transform="matrix(.24,0,0,.24,-201,-94)" d="M118.75 118.75H2362.793V3390.8204H118.75Z" clip-rule="evenodd" />
</clipPath>
<clipPath id="clip_22">
<path transform="matrix(.24,0,0,.24,-201,-94)" d="M956.25 2700H1253.125V2756.25H956.25Z" clip-rule="evenodd" />
</clipPath>
<clipPath id="clip_23">
<path transform="matrix(.24,0,0,.24,-201,-94)" d="M118.75 118.75H2362.793V3390.8204H118.75Z" clip-rule="evenodd" />
</clipPath>
<clipPath id="clip_24">
<path transform="matrix(.24,0,0,.24,-201,-94)" d="M0 62.5H393.75V100H0Z" clip-rule="evenodd" />
</clipPath>
<clipPath id="clip_25">
<path transform="matrix(.24,0,0,.24,-201,-94)" d="M393.75 62.5H2478.125V100H393.75Z" clip-rule="evenodd" />
</clipPath>
<clipPath id="clip_26">
<path transform="matrix(.24,0,0,.24,-201,-94)" d="M0 3409.375H2309.375V3446.875H0Z" clip-rule="evenodd" />
</clipPath>
<clipPath id="clip_27">
<path transform="matrix(.24,0,0,.24,-201,-94)" d="M2309.375 3409.375H2478.125V3446.875H2309.375Z" clip-rule="evenodd" />
</clipPath>
</defs>
<g clip-path="url(#clip_1)">
<g clip-path="url(#clip_2)">
</g>
<g clip-path="url(#clip_3)">
<g clip-path="url(#clip_4)">
</g>
</g>
<g clip-path="url(#clip_5)">
</g>
<g clip-path="url(#clip_6)">
<path transform="matrix(.7496148,0,0,.75061658,2.25,2.0011979)" d="M140.964 207.304V170.796H134.214V199.983H60.412V98.624L52.776 98.628V207.294L140.964 207.304Z" fill="#688aa7" fill-opacity=".7" />
<path transform="matrix(.7496148,0,0,.75061658,2.25,2.0011979)" d="M215.979 183.122 216.252 184.967H215.926C215.73799 184.357 215.54999 183.97699 215.361 183.82599 215.17099 183.67699 214.76999 183.60099 214.159 183.60099H212.72299V188.29398C212.72299 188.81497 212.74999 189.12697 212.80399 189.22798 212.85898 189.32898 212.94399 189.41698 213.05998 189.49399 213.17499 189.56999 213.40598 189.60799 213.75098 189.60799V189.88098H210.36197V189.60799C210.84497 189.59799 211.15598 189.52298 211.29497 189.38298 211.43297 189.24198 211.50197 188.87998 211.50197 188.29398V184.70697C211.50197 184.22997 211.47498 183.92397 211.41997 183.78797 211.36597 183.65297 211.27097 183.55597 211.13597 183.49697 210.99997 183.43697 210.74198 183.40596 210.36298 183.40097V183.12097H215.97898V183.12198L215.979 183.122Z" />
<path transform="matrix(.7496148,0,0,.75061658,2.25,2.0011979)" d="M220.617 188.907C219.922 189.443 219.485 189.754 219.307 189.83699 219.04001 189.95999 218.757 190.02199 218.45601 190.02199 217.98702 190.02199 217.602 189.86299 217.298 189.54299 216.994 189.22399 216.843 188.80298 216.843 188.28099 216.843 187.95099 216.917 187.66599 217.065 187.42499 217.267 187.09099 217.619 186.77599 218.12 186.48099 218.62099 186.18599 219.45299 185.82698 220.61699 185.40399V185.13799C220.61699 184.46298 220.51 184.00099 220.29599 183.74999 220.081 183.49898 219.769 183.37299 219.359 183.37299 219.04799 183.37299 218.801 183.45699 218.61899 183.624 218.43099 183.79199 218.33899 183.98299 218.33899 184.2L218.35399 184.62799C218.35399 184.855 218.29499 185.02899 218.18 185.152 218.064 185.275 217.91199 185.33699 217.72499 185.33699 217.54199 185.33699 217.39299 185.273 217.277 185.14499 217.16199 185.01699 217.103 184.842 217.103 184.622 217.103 184.198 217.31999 183.80899 217.754 183.456 218.188 183.10199 218.797 182.924 219.581 182.924 220.18399 182.924 220.67699 183.026 221.06099 183.22699 221.35199 183.37999 221.566 183.61899 221.70499 183.943 221.79399 184.155 221.83798 184.588 221.83798 185.24199V187.538C221.83798 188.183 221.85099 188.577 221.87499 188.72299 221.89899 188.868 221.93999 188.965 221.99698 189.01399 222.05397 189.06299 222.11898 189.088 222.19298 189.088 222.27198 189.088 222.34098 189.06999 222.39998 189.036 222.50399 188.972 222.70398 188.79199 222.99999 188.497V188.90999C222.44699 189.648 221.91999 190.01699 221.41599 190.01699 221.17499 190.01699 220.98198 189.93299 220.83899 189.76598 220.69599 189.59697 220.622 189.31098 220.61699 188.90699L220.617 188.907ZM220.617 188.428V185.853C219.87201 186.148 219.391 186.357 219.175 186.48 218.785 186.69699 218.506 186.922 218.339 187.159 218.171 187.39499 218.087 187.65399 218.087 187.93399 218.087 188.288 218.19301 188.58199 218.405 188.816 218.61699 189.05 218.861 189.16699 219.137 189.16699 219.513 189.16599 220.006 188.92 220.61699 188.428H220.617Z" />
<path transform="matrix(.7496148,0,0,.75061658,2.25,2.0011979)" d="M223.559 185.239V183.122H223.871C223.96 183.2 224.059 183.239 224.167 183.239 224.251 183.239 224.43302 183.2 224.714 183.122 225.183 182.98799 225.56601 182.922 225.86101 182.922 226.51201 182.922 227.05501 183.07199 227.492 183.372 227.929 183.67299 228.147 184.071 228.147 184.568 228.147 185.331 227.567 185.883 226.408 186.228 227.76001 186.508 228.435 187.14099 228.435 188.124 228.435 188.64099 228.218 189.09799 227.785 189.493 227.35 189.88899 226.72 190.08699 225.89 190.08699 225.347 190.08699 224.87 189.98999 224.458 189.79599 224.04599 189.60199 223.599 189.27399 223.11499 188.81099L223.30699 188.61899C224.116 189.24399 224.883 189.55699 225.60799 189.55699 226.02199 189.55699 226.36299 189.41699 226.62899 189.13599 226.89499 188.85599 227.02799 188.49199 227.02799 188.04399 227.02799 187.06499 226.39398 186.54599 225.12699 186.48699V186.05799C225.72399 186.05799 226.15599 185.89998 226.42499 185.58199 226.69499 185.26499 226.82799 184.92398 226.82799 184.55998 226.82799 184.24098 226.71399 183.95998 226.484 183.71898 226.254 183.47798 225.95 183.35698 225.56999 183.35698 224.69199 183.35698 224.10999 183.98499 223.82399 185.23899H223.55899L223.559 185.239Z" />
<path transform="matrix(.7496148,0,0,.75061658,2.25,2.0011979)" d="M80.878 182.793 82.964 181.952H83.244998V183.53099C83.59599 182.935 83.947 182.51799 84.299999 182.27999 84.65299 182.04198 85.023998 181.92198 85.412998 181.92198 86.093997 181.92198 86.660999 182.18898 87.115 182.71999 87.673 183.36899 87.951 184.21498 87.951 185.25798 87.951 186.42398 87.616 187.38898 86.945 188.15198 86.392 188.77597 85.697 189.08898 84.858 189.08898 84.493007 189.08898 84.177 189.03697 83.911 188.93497 83.714008 188.86096 83.492008 188.71297 83.245 188.49198V190.55197C83.245 191.01398 83.273 191.30797 83.33 191.43398 83.388 191.55898 83.486 191.65898 83.627 191.73297 83.768 191.80597 84.023 191.84297 84.393 191.84297V192.11597H80.840999V191.84297H81.02599C81.297 191.84798 81.52999 191.79598 81.72199 191.68798 81.814998 191.63397 81.88799 191.54697 81.939998 191.42598 81.992 191.30599 82.018 190.99898 82.018 190.50698V184.11597C82.018 183.67797 81.996997 183.39997 81.958 183.28197 81.91901 183.16397 81.855 183.07497 81.77 183.01596 81.683 182.95597 81.565998 182.92696 81.418 182.92696 81.3 182.92696 81.149 182.96196 80.967 183.03096L80.878009 182.79296 80.878 182.793ZM83.245 183.967V186.48999C83.245 187.036 83.267009 187.39499 83.312007 187.568 83.380008 187.853 83.549 188.10399 83.81901 188.31999 84.088008 188.53699 84.42601 188.64499 84.836009 188.64499 85.329 188.64499 85.729007 188.45299 86.035 188.06899 86.434009 187.56798 86.634 186.86199 86.634 185.95198 86.634 184.91898 86.407009 184.12398 85.953 183.56798 85.638 183.18398 85.263 182.99198 84.829 182.99198 84.592 182.99198 84.357 183.05197 84.126 183.16997 83.948 183.25797 83.655 183.52297 83.245 183.96697V183.967Z" />
<path transform="matrix(.7496148,0,0,.75061658,2.25,2.0011979)" d="M88.839 182.122H94.699L94.994998 183.952H94.661998C94.602 183.583 94.504 183.29799 94.366 183.096 94.227 182.89499 94.069 182.76099 93.892 182.698 93.714 182.635 93.410999 182.602 92.981998 182.602H92.39099V187.295C92.39099 187.797 92.42099 188.115 92.482997 188.25099 92.54499 188.38599 92.645 188.476 92.783 188.51999 92.922 188.56499 93.237 188.594 93.729999 188.609V188.88199H90.045V188.609C90.519 188.599 90.823 188.523 90.959 188.37999 91.094 188.23699 91.162 187.87599 91.162 187.29499V182.60199H90.556C90.131 182.60199 89.843 182.62699 89.69 182.67899 89.538 182.73099 89.39 182.85399 89.25 183.04799 89.11 183.24199 88.99 183.54399 88.892 183.952H88.559L88.839 182.122Z" />
<path transform="matrix(.7496148,0,0,.75061658,2.25,2.0011979)" d="M95.18 182.122H98.339V182.394H98.184C97.962 182.394 97.795 182.442 97.685 182.538 97.574 182.635 97.518 182.754 97.518 182.896 97.518 183.08699 97.599 183.35399 97.762 183.693L99.412 187.103 100.929 183.369C101.013 183.167 101.055 182.968 101.055 182.771 101.055 182.68199 101.037 182.616 101.003 182.571 100.963 182.517 100.901 182.474 100.817 182.442 100.733 182.411 100.586 182.394 100.374 182.394V182.122H102.579V182.394C102.396 182.414 102.256008 182.454 102.157009 182.512 102.05801 182.56999 101.950008 182.68199 101.83101 182.844 101.78701 182.913 101.70301 183.103 101.58001 183.41199L98.82001 190.15699C98.55301 190.81099 98.20401 191.30498 97.77301 191.63999 97.34001 191.97499 96.92501 192.14199 96.52601 192.14199 96.23501 192.14199 95.99601 192.05799 95.80801 191.89098 95.62 191.72397 95.52701 191.53199 95.52701 191.31598 95.52701 191.10898 95.59401 190.94298 95.73001 190.81699 95.86601 190.69199 96.05201 190.62899 96.28901 190.62899 96.45201 190.62899 96.67401 190.68299 96.95501 190.79099 97.15201 190.86499 97.27601 190.90099 97.32501 190.90099 97.473018 190.90099 97.63501 190.82498 97.80901 190.67198 97.985019 190.51999 98.16101 190.22498 98.33801 189.78598L98.819019 188.61298 96.38402 183.51297C96.31002 183.36098 96.19202 183.17098 96.029018 182.94498 95.90601 182.77298 95.804019 182.65699 95.72601 182.59798 95.612018 182.51898 95.430019 182.45098 95.17802 182.39098V182.12198H95.180019L95.18 182.122Z" />
<path transform="matrix(.7496148,0,0,.75061658,2.25,2.0011979)" d="M102.568 182.122H108.428L108.724 183.952H108.391C108.331 183.583 108.233 183.29799 108.095 183.096 107.956 182.89499 107.798007 182.76099 107.621 182.698 107.443 182.635 107.14 182.602 106.711 182.602H106.118999V187.295C106.118999 187.797 106.148998 188.115 106.211 188.25099 106.272998 188.38599 106.373 188.476 106.511 188.51999 106.65 188.56499 106.965007 188.594 107.458 188.609V188.88199H103.773V188.609C104.247 188.599 104.551 188.523 104.687007 188.37999 104.82201 188.23699 104.89001 187.87599 104.89001 187.29499V182.60199H104.284008C103.859 182.60199 103.57101 182.62699 103.41801 182.67899 103.26601 182.73099 103.118007 182.85399 102.978008 183.04799 102.838008 183.24199 102.718 183.54399 102.62 183.952H102.287L102.568 182.122Z" />
<path transform="matrix(.7496148,0,0,.75061658,2.25,2.0011979)" d="M111.41 185.133 112.254009 185.118C114.26601 185.118 115.273 185.737 115.273 186.97699 115.273 187.55199 115.027 188.01399 114.537 188.361 114.046009 188.708 113.340007 188.88199 112.417 188.88199H109.162V188.609C109.600009 188.609 109.882 188.52899 110.005008 188.37 110.128009 188.20999 110.191 187.851 110.191 187.29599V183.70899C110.191 183.18299 110.164 182.87198 110.109 182.77498 110.055 182.67899 109.971 182.59297 109.858 182.51699 109.744 182.44098 109.512 182.40299 109.163 182.40299V182.12299H112.707V182.40299C112.219 182.40299 111.918 182.43099 111.804 182.48799 111.691 182.545 111.597 182.618 111.523 182.70899 111.450008 182.80098 111.413 183.13399 111.413 183.70899V185.13298H111.41V185.133ZM111.41 188.299C111.671009 188.36699 111.93201 188.403 112.194 188.403 112.687 188.403 113.088 188.272 113.396 188.011 113.70401 187.75 113.859 187.42 113.859 187.022 113.859 186.078 113.200008 185.605 111.883 185.605 111.769008 185.605 111.612 185.608 111.409008 185.61299V188.299H111.41Z" />
<path transform="matrix(.7496148,0,0,.75061658,2.25,2.0011979)" stroke-width=".75" stroke-linecap="round" stroke-linejoin="round" fill="none" stroke="#e1effd" d="M203.214 55.243H252.755V224.437H186.547V55.243H196.433" />
<path transform="matrix(.7496148,0,0,.75061658,2.25,2.0011979)" stroke-width=".75" stroke-linecap="round" stroke-linejoin="round" fill="none" stroke="#e1effd" d="M60.412 93.512V1.479" />
<path transform="matrix(.7496148,0,0,.75061658,2.25,2.0011979)" stroke-width=".75" stroke-linecap="round" stroke-linejoin="round" fill="none" stroke="#e1effd" d="M134.214 19.608V199.983H60.412V102.6323" />
<path transform="matrix(.7496148,0,0,.75061658,2.25,2.0011979)" stroke-width=".75" stroke-linecap="round" stroke-linejoin="round" fill="none" stroke="#e1effd" d="M134.214 19.608H203.214V55.243" />
<path transform="matrix(.7496148,0,0,.75061658,2.25,2.0011979)" stroke-width=".75" stroke-linecap="round" stroke-linejoin="round" fill="none" stroke="#e1effd" d="M140.964 165.4195V26.42" />
<path transform="matrix(.7496148,0,0,.75061658,2.25,2.0011979)" stroke-width=".75" stroke-linecap="round" stroke-linejoin="round" fill="none" stroke="#e1effd" d="M52.776 1.4790001V207.304H140.964V174.1323" />
<path transform="matrix(.7496148,0,0,.75061658,2.25,2.0011979)" stroke-width=".75" stroke-linecap="round" stroke-linejoin="round" fill="none" stroke="#e1effd" d="M140.964 26.311H196.433" />
<path transform="matrix(.7496148,0,0,.75061658,2.25,2.0011979)" stroke-width=".75" stroke-linecap="round" stroke-linejoin="round" fill="none" stroke="#e1effd" d="M196.433 26.311V55.243" />
<path transform="matrix(.7496148,0,0,.75061658,2.25,2.0011979)" d="M22.933 98.249H30.433C30.536553 98.249 30.624939 98.28561 30.698163 98.358829 30.771386 98.432048 30.807999 98.52044 30.808 98.624 30.807999 98.72755 30.771386 98.81593 30.698163 98.88916 30.624939 98.96238 30.536553 98.99899 30.433 98.999H22.933C22.829445 98.99899 22.741057 98.96238 22.667834 98.88916 22.59461 98.81593 22.557999 98.72755 22.558 98.624 22.557999 98.52044 22.59461 98.432048 22.667834 98.358829 22.741057 98.28561 22.829445 98.249 22.933 98.249ZM33.433 98.249H40.933C41.03655 98.249 41.12494 98.28561 41.198163 98.358829 41.271387 98.432048 41.308 98.52044 41.308 98.624 41.308 98.72755 41.271387 98.81593 41.198163 98.88916 41.12494 98.96238 41.03655 98.99899 40.933 98.999H33.433C33.32944 98.99899 33.241056 98.96238 33.16783 98.88916 33.09461 98.81593 33.057996 98.72755 33.058 98.624 33.057996 98.52044 33.09461 98.432048 33.16783 98.358829 33.241056 98.28561 33.32944 98.249 33.433 98.249ZM43.933 98.249H51.433C51.53655 98.249 51.62494 98.28561 51.698163 98.358829 51.771387 98.432048 51.807996 98.52044 51.808 98.624 51.807996 98.72755 51.771387 98.81593 51.698163 98.88916 51.62494 98.96238 51.53655 98.99899 51.433 98.999H43.933C43.82944 98.99899 43.741056 98.96238 43.66783 98.88916 43.59461 98.81593 43.557996 98.72755 43.558 98.624 43.557996 98.52044 43.59461 98.432048 43.66783 98.358829 43.741056 98.28561 43.82944 98.249 43.933 98.249ZM54.433 98.249H60.412C60.51555 98.249 60.603937 98.28561 60.67716 98.358829 60.75038 98.432048 60.786996 98.52044 60.787 98.624 60.786996 98.72755 60.75038 98.81593 60.67716 98.88916 60.603937 98.96238 60.51555 98.99899 60.412 98.999H54.433C54.32944 98.99899 54.241056 98.96238 54.16783 98.88916 54.09461 98.81593 54.057996 98.72755 54.058 98.624 54.057996 98.52044 54.09461 98.432048 54.16783 98.358829 54.241056 98.28561 54.32944 98.249 54.433 98.249Z" fill="#ffc34e" />
<path transform="matrix(.7496148,0,0,.75061658,2.25,2.0011979)" d="M24.214 170.421H31.714C31.817553 170.421 31.905941 170.45761 31.979165 170.53083 32.052389 170.60405 32.088998 170.69245 32.089 170.796 32.088998 170.89955 32.052389 170.98793 31.979165 171.06116 31.905941 171.13439 31.817553 171.17099 31.714 171.171H24.214C24.110445 171.17099 24.022057 171.13439 23.948834 171.06116 23.875609 170.98793 23.838999 170.89955 23.839 170.796 23.838999 170.69245 23.875609 170.60405 23.948834 170.53083 24.022057 170.45761 24.110445 170.421 24.214 170.421ZM34.714 170.421H42.214C42.31755 170.421 42.40594 170.45761 42.479166 170.53083 42.552389 170.60405 42.588998 170.69245 42.589 170.796 42.588998 170.89955 42.552389 170.98793 42.479166 171.06116 42.40594 171.13439 42.31755 171.17099 42.214 171.171H34.714C34.610445 171.17099 34.522058 171.13439 34.448835 171.06116 34.37561 170.98793 34.338998 170.89955 34.339 170.796 34.338998 170.69245 34.37561 170.60405 34.448835 170.53083 34.522058 170.45761 34.610445 170.421 34.714 170.421ZM45.214 170.421H52.714C52.81755 170.421 52.90594 170.45761 52.979166 170.53083 53.052389 170.60405 53.088998 170.69245 53.089 170.796 53.088998 170.89955 53.052389 170.98793 52.979166 171.06116 52.90594 171.13439 52.81755 171.17099 52.714 171.171H45.214C45.110445 171.17099 45.022058 171.13439 44.948835 171.06116 44.87561 170.98793 44.838998 170.89955 44.839 170.796 44.838998 170.69245 44.87561 170.60405 44.948835 170.53083 45.022058 170.45761 45.110445 170.421 45.214 170.421ZM55.714 170.421H63.214C63.31755 170.421 63.40594 170.45761 63.479166 170.53083 63.552389 170.60405 63.588998 170.69245 63.589 170.796 63.588998 170.89955 63.552389 170.98793 63.479166 171.06116 63.40594 171.13439 63.31755 171.17099 63.214 171.171H55.714C55.610445 171.17099 55.522054 171.13439 55.44883 171.06116 55.375608 170.98793 55.338998 170.89955 55.339 170.796 55.338998 170.69245 55.375608 170.60405 55.44883 170.53083 55.522054 170.45761 55.610445 170.421 55.714 170.421ZM66.214008 170.421H73.714008C73.81756 170.421 73.905948 170.45761 73.979167 170.53083 74.05239 170.60405 74.089008 170.69245 74.089008 170.796 74.089008 170.89955 74.05239 170.98793 73.979167 171.06116 73.905948 171.13439 73.81756 171.17099 73.714008 171.171H66.214008C66.11045 171.17099 66.02206 171.13439 65.94884 171.06116 65.87561 170.98793 65.839 170.89955 65.839008 170.796 65.839 170.69245 65.87561 170.60405 65.94884 170.53083 66.02206 170.45761 66.11045 170.421 66.214008 170.421ZM76.714008 170.421H84.214008C84.31756 170.421 84.405948 170.45761 84.479167 170.53083 84.55239 170.60405 84.589008 170.69245 84.589008 170.796 84.589008 170.89955 84.55239 170.98793 84.479167 171.06116 84.405948 171.13439 84.31756 171.17099 84.214008 171.171H76.714008C76.61045 171.17099 76.52206 171.13439 76.44884 171.06116 76.37561 170.98793 76.339 170.89955 76.339008 170.796 76.339 170.69245 76.37561 170.60405 76.44884 170.53083 76.52206 170.45761 76.61045 170.421 76.714008 170.421ZM87.214008 170.421H94.714008C94.81756 170.421 94.905948 170.45761 94.979167 170.53083 95.05238 170.60405 95.089 170.69245 95.089008 170.796 95.089 170.89955 95.05238 170.98793 94.979167 171.06116 94.905948 171.13439 94.81756 171.17099 94.714008 171.171H87.214008C87.11045 171.17099 87.02206 171.13439 86.94884 171.06116 86.87561 170.98793 86.839 170.89955 86.839008 170.796 86.839 170.69245 86.87561 170.60405 86.94884 170.53083 87.02206 170.45761 87.11045 170.421 87.214008 170.421ZM97.714008 170.421H105.214008C105.31756 170.421 105.405948 170.45761 105.479167 170.53083 105.55238 170.60405 105.589 170.69245 105.589008 170.796 105.589 170.89955 105.55238 170.98793 105.479167 171.06116 105.405948 171.13439 105.31756 171.17099 105.214008 171.171H97.714008C97.61045 171.17099 97.52206 171.13439 97.44884 171.06116 97.37561 170.98793 97.339 170.89955 97.339008 170.796 97.339 170.69245 97.37561 170.60405 97.44884 170.53083 97.52206 170.45761 97.61045 170.421 97.714008 170.421ZM108.214008 170.421H115.714008C115.81756 170.421 115.905948 170.45761 115.979167 170.53083 116.05238 170.60405 116.089 170.69245 116.089008 170.796 116.089 170.89955 116.05238 170.98793 115.979167 171.06116 115.905948 171.13439 115.81756 171.17099 115.714008 171.171H108.214008C108.11045 171.17099 108.02206 171.13439 107.94882 171.06116 107.8756 170.98793 107.839 170.89955 107.839008 170.796 107.839 170.69245 107.8756 170.60405 107.94882 170.53083 108.02206 170.45761 108.11045 170.421 108.214008 170.421ZM118.714008 170.421H126.214008C126.31756 170.421 126.405948 170.45761 126.479167 170.53083 126.55238 170.60405 126.589 170.69245 126.589008 170.796 126.589 170.89955 126.55238 170.98793 126.479167 171.06116 126.405948 171.13439 126.31756 171.17099 126.214008 171.171H118.714008C118.61045 171.17099 118.52206 171.13439 118.44882 171.06116 118.3756 170.98793 118.339 170.89955 118.339008 170.796 118.339 170.69245 118.3756 170.60405 118.44882 170.53083 118.52206 170.45761 118.61045 170.421 118.714008 170.421ZM129.214 170.421H136.714C136.81755 170.421 136.90593 170.45761 136.97916 170.53083 137.05239 170.60405 137.089 170.69245 137.089 170.796 137.089 170.89955 137.05239 170.98793 136.97916 171.06116 136.90593 171.13439 136.81755 171.17099 136.714 171.171H129.214C129.11045 171.17099 129.02205 171.13439 128.94882 171.06116 128.87561 170.98793 128.839 170.89955 128.839 170.796 128.839 170.69245 128.87561 170.60405 128.94882 170.53083 129.02205 170.45761 129.11045 170.421 129.214 170.421ZM139.714 170.421H140.901C141.00455 170.421 141.09293 170.45761 141.16616 170.53083 141.23938 170.60405 141.27599 170.69245 141.276 170.796 141.27599 170.89955 141.23938 170.98793 141.16616 171.06116 141.09293 171.13439 141.00455 171.17099 140.901 171.171H139.714C139.61045 171.17099 139.52205 171.13439 139.44882 171.06116 139.3756 170.98793 139.33899 170.89955 139.339 170.796 139.33899 170.69245 139.3756 170.60405 139.44882 170.53083 139.52205 170.45761 139.61045 170.421 139.714 170.421Z" fill="#ffc34e" />
<path transform="matrix(.7496148,0,0,.75061658,2.25,2.0011979)" stroke-width="1" stroke-linecap="round" stroke-linejoin="round" fill="none" stroke="#e1effd" d="M25.714 207.294V4.775" />
<path transform="matrix(.7496148,0,0,.75061658,2.25,2.0011979)" d="M25.749 8.915 21.296 14.851 25.745 0 30.21 14.847 25.749 8.915Z" fill="#e1effd" />
<path transform="matrix(.7496148,0,0,.75061658,2.25,2.0011979)" d="M7.909 206.796C7.909 205.64402 8.084 204.651 8.432 203.819 8.781 202.985 9.245 202.366 9.823 201.95801 10.271 201.636 10.734 201.47402 11.213 201.47402 11.990001 201.47402 12.689 201.86902 13.306 202.66002 14.078 203.63903 14.465 204.96703 14.465 206.64002 14.465 207.81401 14.295 208.81002 13.956 209.63002 13.617001 210.45003 13.185 211.04402 12.659 211.41503 12.134001 211.78603 11.627001 211.97002 11.1380009 211.97002 10.1710009 211.97002 9.367001 211.40203 8.724001 210.26302 8.181001 209.30402 7.909001 208.14902 7.909001 206.79602L7.909 206.796ZM9.375 206.983C9.375 208.37401 9.547 209.51 9.891 210.389 10.174 211.12902 10.598 211.5 11.162 211.5 11.431 211.5 11.71 211.379 11.999 211.139 12.287999 210.897 12.507 210.494 12.657 209.92801 12.886 209.07302 13.000999 207.867 13.000999 206.311 13.000999 205.15901 12.881 204.198 12.641999 203.42601 12.462999 202.856 12.230999 202.449 11.947 202.21102 11.743 202.04701 11.497 201.96501 11.207999 201.96501 10.8689999 201.96501 10.566999 202.117 10.303999 202.42002 9.944999 202.83202 9.699999 203.48102 9.571999 204.36502 9.438998 205.25102 9.374999 206.12403 9.374999 206.98302L9.375 206.983Z" />
<path transform="matrix(.7496148,0,0,.75061658,2.25,2.0011979)" d="M8.517 8.629C8.337 9.535 7.985 10.231999 7.459 10.719999 6.934 11.207999 6.353 11.452 5.716 11.452 4.958 11.452 4.296 11.124 3.732 10.469 3.1680003 9.813 2.8860002 8.927 2.8860002 7.811 2.8860002 6.729 3.1980003 5.851 3.8230003 5.175 4.448 4.498 5.198 4.1600005 6.073 4.1600005 6.73 4.1600005 7.269 4.34 7.692 4.6970007 8.115 5.0550005 8.327 5.4260008 8.327 5.8120005 8.327 6.0020005 8.266999 6.157 8.148 6.274 8.028999 6.392 7.8619997 6.451 7.648 6.451 7.3609998 6.451 7.1449997 6.355 6.9989998 6.1660006 6.9159996 6.0610005 6.8619997 5.86 6.8349997 5.564 6.8079998 5.269 6.7099997 5.043 6.5399997 4.888 6.3699996 4.739 6.1339995 4.663 5.8319995 4.663 5.3459994 4.663 4.9549996 4.848 4.657999 5.219 4.263999 5.7089998 4.066999 6.358 4.066999 7.163 4.066999 7.984 4.262999 8.709 4.653999 9.337 5.0449988 9.966 5.573999 10.279 6.239999 10.279 6.716999 10.279 7.143999 10.112 7.5239989 9.776 7.790999 9.547 8.050999 9.128 8.303999 8.522L8.516999 8.629001 8.517 8.629Z" />
<path transform="matrix(.7496148,0,0,.75061658,2.25,2.0011979)" d="M13.701 9.447 15.787001 4.3629996H18.04V4.6479995C17.709002 4.6479995 17.490002 4.681999 17.380002 4.749999 17.27 4.817999 17.184002 4.900999 17.121 5.001999 17.058 5.101999 17.026001 5.426999 17.026001 5.9779989V9.626999C17.026001 10.103999 17.049002 10.409999 17.095002 10.546999 17.141 10.685999 17.236002 10.788999 17.380002 10.859999 17.523 10.928999 17.743002 10.963999 18.04 10.963999V11.241999H14.809001V10.963999C15.208001 10.963999 15.475001 10.887999 15.611001 10.734999 15.747001 10.581999 15.816001 10.212998 15.816001 9.626999V5.489999L13.453001 11.241999H13.198001L10.791 5.489999V9.626999C10.791 10.103999 10.815001 10.409999 10.864 10.546999 10.913 10.685999 11.008 10.788999 11.149 10.859999 11.29 10.928999 11.509 10.963999 11.805 10.963999V11.241999H9.252001V10.963999C9.685 10.963999 9.962001 10.882998 10.084001 10.719998 10.206 10.557999 10.266001 10.193998 10.266001 9.626998V5.977998C10.266001 5.442998 10.240001 5.1259977 10.186001 5.028998 10.132001 4.9319984 10.050001 4.842998 9.938001 4.764998 9.826 4.687998 9.598001 4.648998 9.252001 4.648998V4.363998H11.601001L13.701 9.446999V9.447Z" />
<path transform="matrix(.7496148,0,0,.75061658,2.25,2.0011979)" stroke-width="1" stroke-linecap="round" stroke-linejoin="round" fill="none" stroke="#e1effd" d="M20.151 188.882H25.714" />
<path transform="matrix(.7496148,0,0,.75061658,2.25,2.0011979)" stroke-width="1" stroke-linecap="round" stroke-linejoin="round" fill="none" stroke="#e1effd" d="M20.151 170.796H25.714" />
<path transform="matrix(.7496148,0,0,.75061658,2.25,2.0011979)" stroke-width="1" stroke-linecap="round" stroke-linejoin="round" fill="none" stroke="#e1effd" d="M20.151 207.304H25.714" />
<path transform="matrix(.7496148,0,0,.75061658,2.25,2.0011979)" stroke-width="1" stroke-linecap="round" stroke-linejoin="round" fill="none" stroke="#e1effd" d="M20.151 152.71H25.714" />
<path transform="matrix(.7496148,0,0,.75061658,2.25,2.0011979)" stroke-width="1" stroke-linecap="round" stroke-linejoin="round" fill="none" stroke="#e1effd" d="M20.151 134.624H25.714" />
<path transform="matrix(.7496148,0,0,.75061658,2.25,2.0011979)" stroke-width="1" stroke-linecap="round" stroke-linejoin="round" fill="none" stroke="#e1effd" d="M20.151 116.624H25.714" />
<path transform="matrix(.7496148,0,0,.75061658,2.25,2.0011979)" stroke-width="1" stroke-linecap="round" stroke-linejoin="round" fill="none" stroke="#e1effd" d="M20.151 98.624H25.714" />
<path transform="matrix(.7496148,0,0,.75061658,2.25,2.0011979)" stroke-width="1" stroke-linecap="round" stroke-linejoin="round" fill="none" stroke="#e1effd" d="M20.151 80.624H25.714" />
<path transform="matrix(.7496148,0,0,.75061658,2.25,2.0011979)" d="M1.4760001 166.708 3.96 165.512H4.209V174.017C4.209 174.581 4.2320005 174.933 4.28 175.07199 4.328 175.21099 4.427 175.316 4.577 175.39099 4.728 175.465 5.0340006 175.50699 5.4950006 175.517V175.79199H1.6570001V175.517C2.138 175.507 2.45 175.466 2.591 175.394 2.7310003 175.323 2.829 175.226 2.884 175.105 2.9390002 174.984 2.967 174.621 2.967 174.017V168.579C2.967 167.847 2.942 167.37599 2.891 167.168 2.856 167.009 2.792 166.894 2.6990002 166.819 2.6060003 166.744 2.4940003 166.70801 2.364 166.70801 2.178 166.70801 1.9200001 166.78401 1.5890001 166.93701L1.4760001 166.70801V166.708Z" />
<path transform="matrix(.7496148,0,0,.75061658,2.25,2.0011979)" d="M7.935 170.815C7.935 169.666 8.111 168.676 8.462 167.847 8.814 167.018 9.28 166.4 9.8619999 165.993 10.313999 165.672 10.78 165.511 11.261999 165.511 12.044999 165.511 12.747999 165.905 13.369999 166.692 14.147999 167.668 14.536999 168.99 14.536999 170.659 14.536999 171.827 14.365998 172.81999 14.024999 173.638 13.683999 174.454 13.247998 175.048 12.718999 175.417 12.188999 175.785 11.677999 175.97 11.186999 175.97 10.212999 175.97 9.403 175.404 8.754999 174.269 8.209 173.313 7.934999 172.162 7.934999 170.815H7.935ZM9.411 171.001C9.411 172.388 9.584001 173.51902 9.931 174.39601 10.217 175.13301 10.644 175.50202 11.2109999 175.50202 11.481999 175.50202 11.763 175.38202 12.054 175.14202 12.345 174.90201 12.566 174.49901 12.717 173.93502 12.948 173.08301 13.063 171.88202 13.063 170.33202 13.063 169.18402 12.943 168.22602 12.702 167.45803 12.521 166.88802 12.288 166.48403 12.002 166.24703 11.796 166.08303 11.547999 166.00203 11.257 166.00203 10.916 166.00203 10.6119999 166.15303 10.346 166.45403 9.985 166.86603 9.738999 167.51303 9.608 168.39302 9.477 169.27301 9.411 170.14403 9.411 171.00102V171.001Z" />
<path transform="matrix(.7496148,0,0,.75061658,2.25,2.0011979)" d="M6.738 137.853 6.023 139.79199H0V139.517C1.772 137.923 3.019 136.621 3.742 135.611 4.465 134.59999 4.826 133.676 4.826 132.84 4.826 132.20099 4.6280004 131.676 4.231 131.26599 3.835 130.855 3.36 130.64899 2.808 130.64899 2.3060003 130.64899 1.855 130.79499 1.4560001 131.08499 1.057 131.374 .762 131.799 .5710001 132.35799H.2940001C.4190001 131.44199 .7420001 130.73899 1.2610002 130.249 1.7800002 129.759 2.4290002 129.51399 3.2070003 129.51399 4.0350005 129.51399 4.727 129.777 5.281 130.301 5.835 130.825 6.113 131.44499 6.113 132.157 6.113 132.668 5.992 133.178 5.752 133.688 5.3799998 134.49 4.778 135.338 3.9449998 136.235 2.6949998 137.58301 1.9149997 138.394 1.6039996 138.672H4.2689998C4.8109996 138.672 5.1909997 138.652 5.41 138.612 5.628 138.573 5.825 138.493 6.001 138.371 6.177 138.25 6.33 138.077 6.46 137.854H6.738V137.853Z" />
<path transform="matrix(.7496148,0,0,.75061658,2.25,2.0011979)" d="M7.935 134.815C7.935 133.666 8.111 132.676 8.462 131.847 8.814 131.018 9.28 130.4 9.8619999 129.993 10.313999 129.672 10.78 129.511 11.261999 129.511 12.044999 129.511 12.747999 129.905 13.369999 130.692 14.147999 131.668 14.536999 132.99 14.536999 134.659 14.536999 135.827 14.365998 136.81999 14.024999 137.638 13.683999 138.454 13.247998 139.048 12.718999 139.417 12.188999 139.785 11.677999 139.97 11.186999 139.97 10.212999 139.97 9.403 139.404 8.754999 138.269 8.209 137.313 7.934999 136.162 7.934999 134.815H7.935ZM9.411 135.001C9.411 136.388 9.584001 137.51902 9.931 138.39601 10.217 139.13301 10.644 139.50202 11.2109999 139.50202 11.481999 139.50202 11.763 139.38202 12.054 139.14202 12.345 138.90201 12.566 138.49901 12.717 137.93502 12.948 137.08301 13.063 135.88202 13.063 134.33202 13.063 133.18402 12.943 132.22602 12.702 131.45803 12.521 130.88802 12.288 130.48403 12.002 130.24703 11.796 130.08303 11.547999 130.00203 11.257 130.00203 10.916 130.00203 10.6119999 130.15303 10.346 130.45403 9.985 130.86603 9.738999 131.51303 9.608 132.39302 9.477 133.27301 9.411 134.14403 9.411 135.00102V135.001Z" />
<path transform="matrix(.7496148,0,0,.75061658,2.25,2.0011979)" d="M.45200003 95.636C.74300006 94.958 1.1110001 94.434 1.5550001 94.065 1.9990001 93.696 2.553 93.512 3.2150002 93.512 4.033 93.512 4.6610004 93.774 5.097 94.299 5.429 94.69 5.5940005 95.109 5.5940005 95.554 5.5940005 96.287 5.1270005 97.044 4.1940004 97.827 4.821 98.07 5.2960007 98.416 5.617 98.867008 5.938 99.318 6.099 99.84701 6.099 100.457 6.099 101.329 5.818 102.083 5.256 102.722 4.523 103.554 3.4620002 103.97 2.071 103.97 1.3830001 103.97 .9150001 103.886 .66700008 103.718 .41900004 103.55 .29400007 103.369 .29400007 103.176 .29400007 103.032009 .35300008 102.906009 .47100009 102.798007 .5890001 102.69 .73100009 102.634 .8960001 102.634 1.0210002 102.634 1.149 102.654 1.2800001 102.694 1.3650001 102.718 1.5580001 102.809 1.8600001 102.965007 2.1610003 103.121 2.3690003 103.214008 2.4850002 103.243007 2.6710003 103.298007 2.8690003 103.325008 3.0800002 103.325008 3.592 103.325008 4.037 103.129009 4.4160006 102.73801 4.7950007 102.34701 4.984 101.88401 4.984 101.34901 4.984 100.95801 4.8960006 100.577 4.7200005 100.20501 4.59 99.92801 4.4470007 99.71701 4.2910006 99.57401 4.0750005 99.376018 3.7790004 99.196018 3.4030004 99.03501 3.0270005 98.87401 2.6430004 98.793018 2.2510005 98.793018H2.0100005V98.570018C2.4060007 98.52101 2.8040004 98.38001 3.2030006 98.14702 3.6020008 97.914028 3.8920007 97.63402 4.0730006 97.30802 4.254 96.982028 4.3440005 96.622028 4.3440005 96.23102 4.3440005 95.721019 4.182 95.30902 3.8590003 94.99402 3.5360003 94.679019 3.1320003 94.52202 2.6510003 94.52202 1.8730003 94.52202 1.2230003 94.93302 .7010002 95.75502L.4520002 95.63602 .45200003 95.636Z" />
<path transform="matrix(.7496148,0,0,.75061658,2.25,2.0011979)" d="M7.935 98.815C7.935 97.666 8.111 96.677 8.462 95.848 8.814 95.018 9.28 94.401 9.8619999 93.994 10.313999 93.672008 10.78 93.512 11.261999 93.512 12.044999 93.512 12.747999 93.906 13.369999 94.693 14.147999 95.669 14.536999 96.991 14.536999 98.659008 14.536999 99.828 14.365998 100.82101 14.024999 101.638 13.683999 102.454998 13.247998 103.048007 12.718999 103.417 12.188999 103.786 11.677999 103.97 11.186999 103.97 10.212999 103.97 9.403 103.403 8.754999 102.269008 8.209 101.313 7.934999 100.162 7.934999 98.815H7.935ZM9.411 99C9.411 100.387 9.584001 101.518 9.931 102.395 10.217 103.132999 10.644 103.502 11.2109999 103.502 11.481999 103.502 11.763 103.381999 12.054 103.142 12.345 102.902 12.566 102.499 12.717 101.935 12.948 101.083 13.063 99.881999 13.063 98.332 13.063 97.184 12.943 96.225 12.702 95.457 12.521 94.888 12.288 94.484 12.002 94.247 11.796 94.083 11.547999 94.002 11.257 94.002 10.916 94.002 10.6119999 94.153 10.346 94.455 9.985 94.866008 9.738999 95.513 9.608 96.394008 9.477 97.27501 9.411 98.144008 9.411 99.00001V99Z" />
<path transform="matrix(.7496148,0,0,.75061658,2.25,2.0011979)" stroke-width=".75" stroke-linecap="round" stroke-linejoin="round" fill="none" stroke="#e1effd" d="M140.964 174.1323V165.4195" />
<path transform="matrix(.7496148,0,0,.75061658,2.25,2.0011979)" stroke-width=".75" stroke-linecap="round" stroke-linejoin="round" fill="none" stroke="#e1effd" d="M60.412 102.6323V93.512" />
<path transform="matrix(.7496148,0,0,.75061658,2.25,2.0011979)" d="M194.4 216.6V219.08H193.62999V212.64H194.4V213.35C194.56 213.07 194.76334 212.86334 195.01 212.73001 195.25666 212.59668 195.54999 212.53002 195.89 212.53002 196.45667 212.53002 196.91667 212.75669 197.27 213.21 197.62334 213.66333 197.8 214.25334 197.8 214.98001 197.8 215.71335 197.62334 216.30335 197.27 216.75002 196.91667 217.20334 196.45667 217.43001 195.89 217.43001 195.55 217.43001 195.25667 217.36334 195.01 217.23001 194.76334 217.09668 194.56 216.89002 194.4 216.61002V216.6ZM197.01 214.97C197.01 214.40334 196.89333 213.96334 196.65999 213.65 196.42665 213.33 196.10999 213.17 195.70999 213.17 195.30333 213.17 194.98332 213.33 194.74999 213.65 194.51665 213.96999 194.39998 214.40999 194.39998 214.97 194.39998 215.53667 194.51665 215.98001 194.74999 216.3 194.98332 216.62 195.30333 216.78 195.70999 216.78 196.11666 216.78 196.43332 216.62 196.65999 216.3 196.89333 215.98001 197.01 215.53667 197.01 214.97Z" fill-opacity=".4" />
<path transform="matrix(.7496148,0,0,.75061658,2.25,2.0011979)" d="M203 214.8V215.18001H199.48C199.51334 215.70667 199.67 216.11 199.95 216.39002 200.23667 216.66335 200.63333 216.80002 201.14 216.80002 201.43334 216.80002 201.71668 216.76335 201.99 216.69002 202.27 216.61669 202.54334 216.50669 202.81002 216.36002V217.08002C202.53668 217.19335 202.25334 217.28336 201.96 217.35002 201.67334 217.41002 201.38 217.44002 201.08 217.44002 200.33335 217.44002 199.74333 217.22336 199.31 216.79003 198.87667 216.35669 198.66 215.77004 198.66 215.03003 198.66 214.26337 198.86667 213.6567 199.28 213.21002 199.69333 212.7567 200.25 212.53003 200.95 212.53003 201.57666 212.53003 202.07334 212.73337 202.44 213.14003 202.80667 213.54004 202.99 214.09003 202.99 214.79003L203 214.8ZM202.23 214.57C202.22333 214.15001 202.10666 213.81667 201.87999 213.57 201.65332 213.31667 201.34999 213.19 200.96999 213.19 200.54332 213.19 200.19998 213.31 199.93999 213.55 199.68665 213.79001 199.53998 214.13 199.49999 214.57H202.23Z" fill-opacity=".4" />
<path transform="matrix(.7496148,0,0,.75061658,2.25,2.0011979)" d="M207.8 216.7H209.78V212.65H210.55V217.31999H204.29001V212.65H205.06002V216.7H207.03002V212.65H207.80002L207.8 216.7Z" fill-opacity=".4" />
<path transform="matrix(.7496148,0,0,.75061658,2.25,2.0011979)" d="M214 217.8C213.78 218.35334 213.56999 218.71668 213.37 218.89 213.16333 219.05667 212.89 219.14 212.54999 219.14H211.93999V218.5H212.38999C212.60332 218.5 212.76667 218.45 212.87999 218.35 212.99332 218.25002 213.12332 218.01334 213.26999 217.64L213.40999 217.29 211.51999 212.7H212.32999L213.79 216.34999 215.25 212.7H216.06L214 217.8Z" fill-opacity=".4" />
<path transform="matrix(.7496148,0,0,.75061658,2.25,2.0011979)" d="M219 213.2C218.58667 213.2 218.26334 213.36 218.03 213.68 217.79 213.99999 217.67 214.43999 217.67 215 217.67 215.56 217.78667 216 218.02 216.32 218.26001 216.64 218.58667 216.8 219 216.8 219.40666 216.8 219.73 216.64 219.97 216.32 220.21 216.00002 220.33 215.56002 220.33 215 220.33 214.44667 220.21 214.01 219.97 213.69 219.73 213.36333 219.40666 213.2 219 213.2ZM219 212.55C219.66667 212.55 220.19 212.76667 220.57 213.2 220.95001 213.63333 221.14002 214.23332 221.14002 215 221.14002 215.76667 220.95001 216.36667 220.57 216.8 220.19 217.23334 219.66667 217.45 219 217.45 218.33333 217.45 217.81 217.23334 217.43 216.8 217.04999 216.36667 216.85999 215.76668 216.85999 215 216.85999 214.23334 217.04999 213.63333 217.43 213.2 217.81 212.76667 218.33333 212.55 219 212.55Z" fill-opacity=".4" />
<path transform="matrix(.7496148,0,0,.75061658,2.25,2.0011979)" d="M222.3 217.3V212.63H225.59V213.24H223.06999V217.29001L222.3 217.3Z" fill-opacity=".4" />
<path transform="matrix(.7496148,0,0,.75061658,2.25,2.0011979)" d="M226.5 216.4C226.94 216.64 227.37667 216.76 227.81 216.76 228.21666 216.76 228.56667 216.64333 228.86 216.40999 229.15334 216.16999 229.32668 215.74666 229.38 215.13999H227.01001V214.52999H229.35C229.31667 214.23665 229.19 213.93665 228.97 213.62999 228.75 213.31665 228.36333 213.15999 227.81 213.15999 227.38333 213.15999 226.94667 213.27999 226.5 213.51999V212.79999C226.93334 212.60666 227.38333 212.51 227.85 212.51 228.57668 212.51 229.15001 212.73 229.57 213.17 229.99 213.61 230.20001 214.20667 230.20001 214.95999 230.20001 215.70665 229.99668 216.30332 229.59001 216.74999 229.18335 217.18999 228.62335 217.40999 227.91002 217.40999 227.38336 217.40999 226.91669 217.30998 226.51003 217.10999L226.5 216.4Z" fill-opacity=".4" />
<path transform="matrix(.7496148,0,0,.75061658,2.25,2.0011979)" d="M231.6 216.3H232.48001V217.36H231.6Z" fill-opacity=".4" />
<path transform="matrix(.7496148,0,0,.75061658,2.25,2.0011979)" d="M235 216.6V219.08H234.23V212.64H235V213.35C235.16 213.07 235.36334 212.86334 235.61 212.73001 235.85666 212.59668 236.15 212.53002 236.49 212.53002 237.05667 212.53002 237.51668 212.75669 237.87001 213.21 238.22335 213.66333 238.40001 214.25334 238.40001 214.98001 238.40001 215.71335 238.22335 216.30335 237.87001 216.75002 237.51668 217.20334 237.05667 217.43001 236.49 217.43001 236.15001 217.43001 235.85668 217.36334 235.61 217.23001 235.36334 217.09668 235.16 216.89002 235 216.61002V216.6ZM237.61 214.97C237.61 214.40334 237.49333 213.96334 237.26 213.65 237.02666 213.33 236.70999 213.17 236.31 213.17 235.90334 213.17 235.58333 213.33 235.34999 213.65 235.11666 213.96999 234.99999 214.40999 234.99999 214.97 234.99999 215.53667 235.11666 215.98001 235.34999 216.3 235.58333 216.62 235.90334 216.78 236.31 216.78 236.71666 216.78 237.03333 216.62 237.26 216.3 237.49333 215.98001 237.61 215.53667 237.61 214.97Z" fill-opacity=".4" />
<path transform="matrix(.7496148,0,0,.75061658,2.25,2.0011979)" d="M240.1 215C240.1 215.65334 240.20001 216.12 240.40001 216.4 240.6 216.67333 240.87335 216.81 241.22002 216.81 241.49335 216.81 241.78668 216.57666 242.10002 216.11V213.89C241.78668 213.42334 241.49335 213.19 241.22002 213.19 240.88002 213.19 240.60669 213.33 240.40001 213.61 240.20001 213.88333 240.1 214.34667 240.1 215ZM242.1 219.1V216.73001C241.94 216.99 241.77 217.17334 241.59001 217.28002 241.41 217.38669 241.20334 217.44002 240.97002 217.44002 240.50336 217.44002 240.11002 217.22669 239.79003 216.80002 239.47003 216.36669 239.31003 215.77002 239.31003 215.01003 239.31003 214.24337 239.47003 213.64336 239.79003 213.21002 240.1167 212.77002 240.51003 212.55002 240.97002 212.55002 241.20336 212.55002 241.41002 212.60335 241.59001 212.71002 241.77667 212.8167 241.94667 213.00003 242.1 213.26003V211.11003H242.87001V213.26003C243.03002 213.00003 243.20001 212.8167 243.38 212.71002 243.56667 212.60335 243.77333 212.55002 244 212.55002 244.46666 212.55002 244.86 212.77002 245.18 213.21002 245.50667 213.65003 245.67 214.25003 245.67 215.01003 245.67 215.77669 245.50667 216.37335 245.18 216.80002 244.86 217.22669 244.46666 217.44002 244 217.44002 243.76667 217.44002 243.56 217.38669 243.38 217.28002 243.2 217.17334 243.03 216.99 242.87001 216.73001V219.1H242.1ZM244.87001 215C244.87001 214.34667 244.77 213.88333 244.57 213.61 244.37001 213.33 244.1 213.19 243.76001 213.19 243.48668 213.19 243.19335 213.42334 242.88 213.89V216.11C243.19335 216.57666 243.48668 216.81 243.76001 216.81 244.1 216.81 244.37001 216.67333 244.57 216.4 244.77 216.12 244.87001 215.65334 244.87001 215Z" fill-opacity=".4" />
</g>
<g clip-path="url(#clip_7)">
</g>
<g clip-path="url(#clip_8)">
</g>
<g clip-path="url(#clip_9)">
<g clip-path="url(#clip_10)">
</g>
</g>
<g clip-path="url(#clip_11)">
</g>
<g clip-path="url(#clip_12)">
<g clip-path="url(#clip_13)">
</g>
</g>
<g clip-path="url(#clip_14)">
</g>
<g clip-path="url(#clip_15)">
</g>
<g clip-path="url(#clip_16)">
</g>
<g clip-path="url(#clip_17)">
</g>
<g clip-path="url(#clip_18)">
</g>
<g clip-path="url(#clip_19)">
<g clip-path="url(#clip_20)">
</g>
</g>
<g clip-path="url(#clip_21)">
</g>
<g clip-path="url(#clip_22)">
</g>
<g clip-path="url(#clip_23)">
</g>
<g clip-path="url(#clip_24)">
</g>
<g clip-path="url(#clip_25)">
</g>
<g clip-path="url(#clip_26)">
</g>
<g clip-path="url(#clip_27)">
</g>
</g>
</svg>