<svg xmlns="http://www.w3.org/2000/svg" version="1.1" width="884" height="271" viewBox="0 0 294.6884 90.46875" fill="#e1effd">
<defs>
<clipPath id="clip_1">
<path transform="matrix(1,0,0,-1,-150.78079,510.17213)" d="M150.78079 419.70338H445.46919V510.17213H150.78079Z" clip-rule="evenodd" />
</clipPath>
<clipPath id="clip_2">
<path transform="matrix(.24,0,0,.24,-150.78079,-331.74787)" d="M118.75 118.75H2362.793V3390.8204H118.75Z" clip-rule="evenodd" />
</clipPath>
<clipPath id="clip_3">
<path transform="matrix(.24,0,0,.24,-150.78079,-331.74787)" d="M118.75 118.75H2362.793V3390.8204H118.75Z" />
</clipPath>
<clipPath id="clip_4">
<path transform="matrix(.24,0,0,.24,-150.78079,-331.74787)" d="M584.375 170.3125C584.37496 167.20449 584.96969 164.21477 586.15908 161.34334 587.3484 158.47193 589.04196 155.93737 591.2396 153.73969 593.43728 151.54199 595.9718 149.84845 598.84329 148.65906 601.7147 147.46968 604.70449 146.875 607.8125 146.875 610.9205 146.875 613.91018 147.46968 616.78158 148.65906 619.65298 149.84845 622.18759 151.54199 624.38528 153.73969 626.58297 155.93737 628.2765 158.47193 629.4659 161.34334 630.6553 164.21477 631.24996 167.20449 631.25 170.3125 631.24996 173.4205 630.6553 176.41022 629.4659 179.28163 628.2765 182.15305 626.58297 184.6876 624.38528 186.88532 622.18759 189.083 619.65298 190.77652 616.78158 191.96593 613.91018 193.1553 610.9205 193.74999 607.8125 193.75 604.70449 193.74999 601.7147 193.15529 598.84329 191.9659 595.9718 190.77652 593.43728 189.083 591.2396 186.88532 589.04196 184.6876 587.3484 182.15305 586.15908 179.28163 584.96969 176.41022 584.37496 173.4205 584.375 170.3125Z" />
</clipPath>
<clipPath id="clip_5">
<path transform="matrix(.24,0,0,.24,-150.78079,-331.74787)" d="M118.75 118.75H2362.793V3390.8204H118.75Z" clip-rule="evenodd" />
</clipPath>
<clipPath id="clip_6">
<path transform="matrix(.24,0,0,.24,-150.78079,-331.74787)" d="M118.75 118.75H2362.793V3390.8204H118.75Z" />
</clipPath>
<clipPath id="clip_7">
<path transform="matrix(.24,0,0,.24,-150.78079,-331.74787)" d="M584.375 1145.3125C584.37496 1142.2045 584.96969 1139.2146 586.15908 1136.3432 587.3484 1133.4717 589.04196 1130.9373 591.2396 1128.7396 593.43728 1126.5419 595.9718 1124.8483 598.84329 1123.6589 601.7147 1122.4696 604.70449 1121.875 607.8125 1121.875 610.9205 1121.875 613.91018 1122.4696 616.78158 1123.6589 619.65298 1124.8483 622.18759 1126.5419 624.38528 1128.7396 626.58297 1130.9373 628.2765 1133.4717 629.4659 1136.3432 630.6553 1139.2146 631.24996 1142.2045 631.25 1145.3125 631.24996 1148.4204 630.6553 1151.41 629.4659 1154.2815 628.2765 1157.153 626.58297 1159.6875 624.38528 1161.8853 622.18759 1164.0829 619.65298 1165.7765 616.78158 1166.9658 613.91018 1168.1552 610.9205 1168.7499 607.8125 1168.75 604.70449 1168.7499 601.7147 1168.1552 598.84329 1166.9658 595.9718 1165.7765 593.43728 1164.0829 591.2396 1161.8853 589.04196 1159.6875 587.3484 1157.153 586.15908 1154.2815 584.96969 1151.41 584.37496 1148.4204 584.375 1145.3125Z" />
</clipPath>
<clipPath id="clip_8">
<path transform="matrix(.24,0,0,.24,-150.78079,-331.74787)" d="M118.75 118.75H2362.793V3390.8204H118.75Z" clip-rule="evenodd" />
</clipPath>
<clipPath id="clip_9">
<path transform="matrix(.24,0,0,.24,-150.78079,-331.74787)" d="M656.25 1375H1828.1249V1731.25H656.25Z" clip-rule="evenodd" />
</clipPath>
<clipPath id="clip_10">
<path transform="matrix(.24,0,0,.24,-150.78079,-331.74787)" d="M118.75 118.75H2362.793V3390.8204H118.75Z" />
</clipPath>
<clipPath id="clip_11">
<path transform="matrix(.24,0,0,.24,-150.78079,-331.74787)" d="M656.25 1375H1828.125V1731.25H656.25Z" />
</clipPath>
<clipPath id="clip_12">
<path transform="matrix(.24,0,0,.24,-150.78079,-331.74787)" d="M656.25 1375H1828.1249V1731.25H656.25Z" />
</clipPath>
<clipPath id="clip_13">
<path transform="matrix(.24,0,0,.24,-150.78079,-331.74787)" d="M681.20999 1500.5812H796.6499V1579.0671H681.20999Z" />
</clipPath>
<clipPath id="clip_14">
<path transform="matrix(.24,0,0,.24,-150.78079,-331.74787)" d="M681.21188 1554.4776 781.7619 1578.4525 794.41976 1524.7024 693.8697 1500.7276 681.21188 1554.4776Z" />
</clipPath>
<clipPath id="clip_15">
<path transform="matrix(.24,0,0,.24,-150.78079,-331.74787)" d="M118.75 118.75H2362.793V3390.8204H118.75Z" />
</clipPath>
<clipPath id="clip_16">
<path transform="matrix(.24,0,0,.24,-150.78079,-331.74787)" d="M656.25 1375H1828.125V1731.25H656.25Z" />
</clipPath>
<clipPath id="clip_17">
<path transform="matrix(.24,0,0,.24,-150.78079,-331.74787)" d="M656.25 1375H1828.1249V1731.25H656.25Z" />
</clipPath>
<clipPath id="clip_18">
<path transform="matrix(.24,0,0,.24,-150.78079,-331.74787)" d="M681.20999 1500.5812H796.6499V1579.0671H681.20999Z" />
</clipPath>
<clipPath id="clip_19">
<path transform="matrix(.24,0,0,.24,-150.78079,-331.74787)" d="M681.21188 1554.4776 781.7619 1578.4525 794.41976 1524.7024 693.8697 1500.7276 681.21188 1554.4776Z" />
</clipPath>
<clipPath id="clip_20">
<path transform="matrix(.24,0,0,.24,-150.78079,-331.74787)" d="M656.25 1375H1828.1249V1731.25H656.25Z" clip-rule="evenodd" />
</clipPath>
<clipPath id="clip_21">
<path transform="matrix(.24,0,0,.24,-150.78079,-331.74787)" d="M118.75 118.75H2362.793V3390.8204H118.75Z" clip-rule="evenodd" />
</clipPath>
<clipPath id="clip_22">
<path transform="matrix(.24,0,0,.24,-150.78079,-331.74787)" d="M268.75 1878.125H478.125V1925H268.75Z" clip-rule="evenodd" />
</clipPath>
<clipPath id="clip_23">
<path transform="matrix(.24,0,0,.24,-150.78079,-331.74787)" d="M118.75 118.75H2362.793V3390.8204H118.75Z" clip-rule="evenodd" />
</clipPath>
<clipPath id="clip_24">
<path transform="matrix(.24,0,0,.24,-150.78079,-331.74787)" d="M268.75 1934.375H478.125V1984.375H268.75Z" clip-rule="evenodd" />
</clipPath>
<clipPath id="clip_25">
<path transform="matrix(.24,0,0,.24,-150.78079,-331.74787)" d="M118.75 118.75H2362.793V3390.8204H118.75Z" clip-rule="evenodd" />
</clipPath>
<clipPath id="clip_26">
<path transform="matrix(.24,0,0,.24,-150.78079,-331.74787)" d="M268.75 1993.75H453.125V2043.75H268.75Z" clip-rule="evenodd" />
</clipPath>
<clipPath id="clip_27">
<path transform="matrix(.24,0,0,.24,-150.78079,-331.74787)" d="M118.75 118.75H2362.793V3390.8204H118.75Z" clip-rule="evenodd" />
</clipPath>
<clipPath id="clip_28">
<path transform="matrix(.24,0,0,.24,-150.78079,-331.74787)" d="M268.75 2053.125H478.125V2103.125H268.75Z" clip-rule="evenodd" />
</clipPath>
<clipPath id="clip_29">
<path transform="matrix(.24,0,0,.24,-150.78079,-331.74787)" d="M118.75 118.75H2362.793V3390.8204H118.75Z" clip-rule="evenodd" />
</clipPath>
<clipPath id="clip_30">
<path transform="matrix(.24,0,0,.24,-150.78079,-331.74787)" d="M118.75 118.75H2362.793V3390.8204H118.75Z" />
</clipPath>
<clipPath id="clip_31">
<path transform="matrix(.24,0,0,.24,-150.78079,-331.74787)" d="M584.375 2201.5626C584.37496 2198.4544 584.96969 2195.4644 586.15908 2192.593 587.3484 2189.7218 589.04196 2187.187 591.2396 2184.9896 593.43728 2182.7918 595.9718 2181.0982 598.84329 2179.909 601.7147 2178.7198 604.70449 2178.125 607.8125 2178.125 610.9205 2178.125 613.91018 2178.7198 616.78158 2179.909 619.65298 2181.0982 622.18759 2182.7918 624.38528 2184.9896 626.58297 2187.187 628.2765 2189.7218 629.4659 2192.593 630.6553 2195.4644 631.24996 2198.4544 631.25 2201.5626 631.24996 2204.6705 630.6553 2207.66 629.4659 2210.5313 628.2765 2213.4027 626.58297 2215.9373 624.38528 2218.135 622.18759 2220.3326 619.65298 2222.0262 616.78158 2223.2156 613.91018 2224.405 610.9205 2224.9998 607.8125 2225 604.70449 2224.9998 601.7147 2224.405 598.84329 2223.2156 595.9718 2222.0262 593.43728 2220.3326 591.2396 2218.135 589.04196 2215.9373 587.3484 2213.4027 586.15908 2210.5313 584.96969 2207.66 584.37496 2204.6705 584.375 2201.5626Z" />
</clipPath>
<clipPath id="clip_32">
<path transform="matrix(.24,0,0,.24,-150.78079,-331.74787)" d="M118.75 118.75H2362.793V3390.8204H118.75Z" clip-rule="evenodd" />
</clipPath>
<clipPath id="clip_33">
<path transform="matrix(.24,0,0,.24,-150.78079,-331.74787)" d="M0 62.5H393.75V100H0Z" clip-rule="evenodd" />
</clipPath>
<clipPath id="clip_34">
<path transform="matrix(.24,0,0,.24,-150.78079,-331.74787)" d="M393.75 62.5H2478.125V100H393.75Z" clip-rule="evenodd" />
</clipPath>
<clipPath id="clip_35">
<path transform="matrix(.24,0,0,.24,-150.78079,-331.74787)" d="M0 3409.375H2290.625V3446.875H0Z" clip-rule="evenodd" />
</clipPath>
<clipPath id="clip_36">
<path transform="matrix(.24,0,0,.24,-150.78079,-331.74787)" d="M2290.625 3409.375H2478.125V3446.875H2290.625Z" clip-rule="evenodd" />
</clipPath>
</defs>
<g>
<g clip-path="url(#clip_1)">
<g clip-path="url(#clip_2)">
</g>
<g clip-path="url(#clip_3)">
<g clip-path="url(#clip_4)">
</g>
</g>
<g clip-path="url(#clip_5)">
</g>
<g clip-path="url(#clip_6)">
<g clip-path="url(#clip_7)">
</g>
</g>
<g clip-path="url(#clip_8)">
</g>
<g clip-path="url(#clip_9)">
<path transform="matrix(.7487996,0,0,.75346526,6.719208,-1.7469788)" stroke-width=".75" stroke-linecap="round" stroke-linejoin="round" fill="none" stroke="#e1effd" d="M3.141 11.609 375.2261 99.7793" />
<path transform="matrix(.7487996,0,0,.75346526,6.719208,-1.7469788)" stroke-width=".75" stroke-linecap="round" stroke-linejoin="round" fill="none" stroke="#e1effd" d="M.375 24.6729 3.141 11.609" />
<path transform="matrix(.7487996,0,0,.75346526,6.719208,-1.7469788)" stroke-width=".75" stroke-linecap="round" stroke-linejoin="round" fill="none" stroke="#e1effd" d="M21.5239 29.7367 24.2899 16.6729" />
<path transform="matrix(.7487996,0,0,.75346526,6.719208,-1.7469788)" stroke-width=".75" stroke-linecap="round" stroke-linejoin="round" fill="none" stroke="#e1effd" d="M42.4601 34.7154 45.2261 21.6516" />
<path transform="matrix(.7487996,0,0,.75346526,6.719208,-1.7469788)" stroke-width=".75" stroke-linecap="round" stroke-linejoin="round" fill="none" stroke="#e1effd" d="M63.2686 39.8218 66.0346 26.758" />
<path transform="matrix(.7487996,0,0,.75346526,6.719208,-1.7469788)" stroke-width=".75" stroke-linecap="round" stroke-linejoin="round" fill="none" stroke="#e1effd" d="M83.4034 45.0956 86.1693 32.0318" />
<path transform="matrix(.7487996,0,0,.75346526,6.719208,-1.7469788)" stroke-width=".75" stroke-linecap="round" stroke-linejoin="round" fill="none" stroke="#e1effd" d="M104.2504 49.5095 107.0164 36.4456" />
<path transform="matrix(.7487996,0,0,.75346526,6.719208,-1.7469788)" stroke-width=".75" stroke-linecap="round" stroke-linejoin="round" fill="none" stroke="#e1effd" d="M124.8005 54.5027 127.5665 41.4388" />
<path transform="matrix(.7487996,0,0,.75346526,6.719208,-1.7469788)" stroke-width=".75" stroke-linecap="round" stroke-linejoin="round" fill="none" stroke="#e1effd" d="M145.9142 59.7743 148.6802 46.7105" />
<path transform="matrix(.7487996,0,0,.75346526,6.719208,-1.7469788)" stroke-width=".75" stroke-linecap="round" stroke-linejoin="round" fill="none" stroke="#e1effd" d="M166.4064 64.6935 169.1723 51.6297" />
<path transform="matrix(.7487996,0,0,.75346526,6.719208,-1.7469788)" stroke-width=".75" stroke-linecap="round" stroke-linejoin="round" fill="none" stroke="#e1effd" d="M186.6516 68.98 189.4176 55.9161" />
<path transform="matrix(.7487996,0,0,.75346526,6.719208,-1.7469788)" stroke-width=".75" stroke-linecap="round" stroke-linejoin="round" fill="none" stroke="#e1effd" d="M207.5239 74.0346 210.2899 60.9707" />
<path transform="matrix(.7487996,0,0,.75346526,6.719208,-1.7469788)" stroke-width=".75" stroke-linecap="round" stroke-linejoin="round" fill="none" stroke="#e1effd" d="M228.4601 79.141 231.2261 66.0771" />
<path transform="matrix(.7487996,0,0,.75346526,6.719208,-1.7469788)" stroke-width=".75" stroke-linecap="round" stroke-linejoin="round" fill="none" stroke="#e1effd" d="M248.8443 83.4568 251.6102 70.393" />
<path transform="matrix(.7487996,0,0,.75346526,6.719208,-1.7469788)" stroke-width=".75" stroke-linecap="round" stroke-linejoin="round" fill="none" stroke="#e1effd" d="M269.5665 88.5878 272.3325 75.5239" />
<path transform="matrix(.7487996,0,0,.75346526,6.719208,-1.7469788)" stroke-width=".75" stroke-linecap="round" stroke-linejoin="round" fill="none" stroke="#e1effd" d="M290.2473 93.8218 293.0133 80.758" />
<path transform="matrix(.7487996,0,0,.75346526,6.719208,-1.7469788)" stroke-width=".75" stroke-linecap="round" stroke-linejoin="round" fill="none" stroke="#e1effd" d="M310.7724 98.1675 313.5383 85.1037" />
<path transform="matrix(.7487996,0,0,.75346526,6.719208,-1.7469788)" stroke-width=".75" stroke-linecap="round" stroke-linejoin="round" fill="none" stroke="#e1effd" d="M331.609 103.141 334.375 90.0771" />
<path transform="matrix(.7487996,0,0,.75346526,6.719208,-1.7469788)" stroke-width=".75" stroke-linecap="round" stroke-linejoin="round" fill="none" stroke="#e1effd" d="M352.0346 108.2473 354.8005 95.1835" />
<path transform="matrix(.7487996,0,0,.75346526,6.719208,-1.7469788)" stroke-width=".75" stroke-linecap="round" stroke-linejoin="round" fill="none" stroke="#e1effd" d="M372.4601 113.0984 375.2261 100.0346" />
<path transform="matrix(.7487996,0,0,.75346526,6.719208,-1.7469788)" d="M32.417604 8.375C32.417604 8.900288 32.366365 9.420528 32.26388 9.935721 32.161405 10.450915 32.009656 10.951163 31.808636 11.436465 31.607617 11.921767 31.36119 12.382799 31.069357 12.81956 30.777523 13.25632 30.44589 13.660418 30.074456 14.031853 29.70302 14.403286 29.298922 14.73492 28.862162 15.026753 28.4254 15.318587 27.964367 15.565014 27.479065 15.766033 26.993765 15.967052 26.493517 16.118802 25.978323 16.221282 25.46313 16.32376 24.94289 16.374999 24.417603 16.375 23.892315 16.374999 23.372075 16.32376 22.856879 16.221282 22.341685 16.118802 21.841437 15.967052 21.356135 15.766033 20.87083 15.565014 20.409798 15.318587 19.973038 15.026754 19.536278 14.73492 19.132182 14.403286 18.760746 14.031853 18.38931 13.660418 18.057677 13.25632 17.765843 12.81956 17.474009 12.382799 17.227581 11.921767 17.026562 11.436465 16.825543 10.951163 16.673794 10.450915 16.571318 9.935721 16.46884 9.420528 16.4176 8.900288 16.4176 8.375 16.4176 7.8497126 16.46884 7.329471 16.571316 6.8142769 16.673794 6.2990825 16.825543 5.7988345 17.026562 5.313532 17.227581 4.8282296 17.474007 4.367198 17.76584 3.9304376 18.057675 3.4936772 18.389309 3.0895799 18.760745 2.7181454 19.132178 2.3467112 19.536274 2.015077 19.973036 1.7232429 20.409798 1.4314089 20.870829 1.1849824 21.356133 .98396357 21.841437 .7829448 22.341685 .63119617 22.856877 .5287177 23.372073 .42623923 23.892315 .375 24.417603 .375 24.94289 .375 25.46313 .42623923 25.978323 .5287177 26.493519 .63119617 26.993767 .7829448 27.479069 .98396357 27.96437 1.1849824 28.425402 1.4314089 28.862162 1.7232429 29.298922 2.015077 29.70302 2.3467112 30.074456 2.7181454 30.44589 3.0895799 30.777523 3.4936772 31.069355 3.9304376 31.361189 4.367198 31.607617 4.8282296 31.808634 5.313532 32.009656 5.7988345 32.161405 6.2990825 32.26388 6.8142769 32.366365 7.329471 32.417604 7.8497126 32.417604 8.375Z" fill="#ffc34e" fill-opacity=".5" />
<path transform="matrix(.7487996,0,0,.75346526,6.719208,-1.7469788)" stroke-width=".75" stroke-linecap="round" stroke-linejoin="round" fill="none" stroke="#ffc34e" d="M32.417604 8.375C32.417604 8.900288 32.366365 9.420528 32.26388 9.935721 32.161405 10.450915 32.009656 10.951163 31.808636 11.436465 31.607617 11.921767 31.36119 12.382799 31.069357 12.81956 30.777523 13.25632 30.44589 13.660418 30.074456 14.031853 29.70302 14.403286 29.298922 14.73492 28.862162 15.026753 28.4254 15.318587 27.964367 15.565014 27.479065 15.766033 26.993765 15.967052 26.493517 16.118802 25.978323 16.221282 25.46313 16.32376 24.94289 16.374999 24.417603 16.375 23.892315 16.374999 23.372075 16.32376 22.856879 16.221282 22.341685 16.118802 21.841437 15.967052 21.356135 15.766033 20.87083 15.565014 20.409798 15.318587 19.973038 15.026754 19.536278 14.73492 19.132182 14.403286 18.760746 14.031853 18.38931 13.660418 18.057677 13.25632 17.765843 12.81956 17.474009 12.382799 17.227581 11.921767 17.026562 11.436465 16.825543 10.951163 16.673794 10.450915 16.571318 9.935721 16.46884 9.420528 16.4176 8.900288 16.4176 8.375 16.4176 7.8497126 16.46884 7.329471 16.571316 6.8142769 16.673794 6.2990825 16.825543 5.7988345 17.026562 5.313532 17.227581 4.8282296 17.474007 4.367198 17.76584 3.9304376 18.057675 3.4936772 18.389309 3.0895799 18.760745 2.7181454 19.132178 2.3467112 19.536274 2.015077 19.973036 1.7232429 20.409798 1.4314089 20.870829 1.1849824 21.356133 .98396357 21.841437 .7829448 22.341685 .63119617 22.856877 .5287177 23.372073 .42623923 23.892315 .375 24.417603 .375 24.94289 .375 25.46313 .42623923 25.978323 .5287177 26.493519 .63119617 26.993767 .7829448 27.479069 .98396357 27.96437 1.1849824 28.425402 1.4314089 28.862162 1.7232429 29.298922 2.015077 29.70302 2.3467112 30.074456 2.7181454 30.44589 3.0895799 30.777523 3.4936772 31.069355 3.9304376 31.361189 4.367198 31.607617 4.8282296 31.808634 5.313532 32.009656 5.7988345 32.161405 6.2990825 32.26388 6.8142769 32.366365 7.329471 32.417604 7.8497126 32.417604 8.375Z" />
<path transform="matrix(.7487996,0,0,.75346526,6.719208,-1.7469788)" d="M53.758 13.375C53.757997 13.900287 53.706758 14.420527 53.60428 14.935721 53.5018 15.450915 53.35005 15.951163 53.149034 16.436467 52.948015 16.921769 52.701589 17.3828 52.40975 17.81956 52.117918 18.25632 51.786287 18.660418 51.414854 19.031853 51.043416 19.403288 50.639318 19.73492 50.202554 20.026755 49.765794 20.318589 49.30476 20.565014 48.819459 20.766034 48.334157 20.967053 47.83391 21.118802 47.318719 21.221282 46.803525 21.323761 46.283288 21.375 45.758 21.375 45.23271 21.375 44.71247 21.323761 44.197278 21.221282 43.682085 21.118802 43.18183 20.967053 42.69653 20.766034 42.211229 20.565014 41.750196 20.318589 41.31343 20.026755 40.876668 19.73492 40.472574 19.403288 40.10114 19.031853 39.729707 18.660418 39.39807 18.25632 39.106237 17.81956 38.8144 17.3828 38.567975 16.921769 38.366956 16.436467 38.16594 15.951163 38.01419 15.450915 37.911714 14.935721 37.80924 14.420527 37.758 13.900287 37.758 13.375 37.758 12.849711 37.80924 12.329471 37.911718 11.814276 38.01419 11.299082 38.16594 10.798834 38.366956 10.313531 38.567975 9.828228 38.8144 9.367196 39.106237 8.930436 39.39807 8.493676 39.729707 8.08958 40.10114 7.7181456 40.472574 7.3467109 40.876668 7.0150768 41.31343 6.7232429 41.750196 6.4314086 42.211229 6.1849825 42.69653 5.9839637 43.18183 5.7829449 43.68208 5.631196 44.197275 5.5287177 44.712469 5.426239 45.23271 5.375 45.758 5.375 46.283288 5.375 46.803529 5.426239 47.31872 5.5287177 47.833917 5.631196 48.334165 5.7829449 48.819467 5.9839637 49.304765 6.1849825 49.765794 6.4314086 50.202558 6.7232429 50.639318 7.0150768 51.043416 7.3467109 51.414854 7.7181456 51.786287 8.08958 52.117918 8.493676 52.40975 8.930436 52.701585 9.367196 52.94801 9.828228 53.14903 10.313531 53.350049 10.798834 53.501798 11.299082 53.604276 11.814276 53.706758 12.329471 53.757997 12.849711 53.758 13.375Z" fill="#ffc34e" fill-opacity=".5" />
<path transform="matrix(.7487996,0,0,.75346526,6.719208,-1.7469788)" stroke-width=".75" stroke-linecap="round" stroke-linejoin="round" fill="none" stroke="#ffc34e" d="M53.758 13.375C53.757997 13.900287 53.706758 14.420527 53.60428 14.935721 53.5018 15.450915 53.35005 15.951163 53.149034 16.436467 52.948015 16.921769 52.701589 17.3828 52.40975 17.81956 52.117918 18.25632 51.786287 18.660418 51.414854 19.031853 51.043416 19.403288 50.639318 19.73492 50.202554 20.026755 49.765794 20.318589 49.30476 20.565014 48.819459 20.766034 48.334157 20.967053 47.83391 21.118802 47.318719 21.221282 46.803525 21.323761 46.283288 21.375 45.758 21.375 45.23271 21.375 44.71247 21.323761 44.197278 21.221282 43.682085 21.118802 43.18183 20.967053 42.69653 20.766034 42.211229 20.565014 41.750196 20.318589 41.31343 20.026755 40.876668 19.73492 40.472574 19.403288 40.10114 19.031853 39.729707 18.660418 39.39807 18.25632 39.106237 17.81956 38.8144 17.3828 38.567975 16.921769 38.366956 16.436467 38.16594 15.951163 38.01419 15.450915 37.911714 14.935721 37.80924 14.420527 37.758 13.900287 37.758 13.375 37.758 12.849711 37.80924 12.329471 37.911718 11.814276 38.01419 11.299082 38.16594 10.798834 38.366956 10.313531 38.567975 9.828228 38.8144 9.367196 39.106237 8.930436 39.39807 8.493676 39.729707 8.08958 40.10114 7.7181456 40.472574 7.3467109 40.876668 7.0150768 41.31343 6.7232429 41.750196 6.4314086 42.211229 6.1849825 42.69653 5.9839637 43.18183 5.7829449 43.68208 5.631196 44.197275 5.5287177 44.712469 5.426239 45.23271 5.375 45.758 5.375 46.283288 5.375 46.803529 5.426239 47.31872 5.5287177 47.833917 5.631196 48.334165 5.7829449 48.819467 5.9839637 49.304765 6.1849825 49.765794 6.4314086 50.202558 6.7232429 50.639318 7.0150768 51.043416 7.3467109 51.414854 7.7181456 51.786287 8.08958 52.117918 8.493676 52.40975 8.930436 52.701585 9.367196 52.94801 9.828228 53.14903 10.313531 53.350049 10.798834 53.501798 11.299082 53.604276 11.814276 53.706758 12.329471 53.757997 12.849711 53.758 13.375Z" />
<path transform="matrix(.7487996,0,0,.75346526,6.719208,-1.7469788)" d="M115.609 28.183503C115.60899 28.708788 115.557758 29.229029 115.45527 29.744223 115.35279 30.259419 115.20104 30.759667 115.00002 31.244967 114.799 31.730269 114.55258 32.1913 114.26075 32.62806 113.96892 33.064825 113.63728 33.46892 113.265857 33.840356 112.89442 34.21179 112.49032 34.543424 112.05356 34.83526 111.6168 35.12709 111.15576 35.373517 110.67046 35.57454 110.18516 35.775556 109.684909 35.927305 109.169719 36.02978 108.654529 36.13226 108.134288 36.1835 107.609 36.183504 107.08371 36.1835 106.56347 36.13226 106.04827 36.02978 105.533069 35.927305 105.03282 35.775556 104.54752 35.57454 104.06222 35.373517 103.60119 35.12709 103.16443 34.83526 102.72767 34.543424 102.32357 34.21179 101.95214 33.840356 101.5807 33.46892 101.24907 33.064825 100.95724 32.62806 100.6654 32.1913 100.41897 31.730269 100.21795 31.244967 100.01693 30.759667 99.86518 30.259419 99.76271 29.744223 99.66023 29.229029 99.60899 28.708788 99.609 28.183503 99.60899 27.658213 99.66023 27.137972 99.76271 26.622776 99.86518 26.107583 100.01693 25.607335 100.21795 25.12203 100.41897 24.636727 100.6654 24.175696 100.95724 23.738936 101.24907 23.302176 101.5807 22.898079 101.95214 22.526646 102.32357 22.15521 102.72766 21.823576 103.16442 21.531743 103.60118 21.239909 104.06222 20.99348 104.54752 20.792464 105.03282 20.591444 105.533069 20.439696 106.04827 20.33722 106.56347 20.23474 107.08371 20.1835 107.609 20.1835 108.134288 20.1835 108.654529 20.23474 109.169719 20.33722 109.684909 20.439696 110.18516 20.591444 110.67046 20.792464 111.15576 20.99348 111.6168 21.239909 112.05356 21.531743 112.49032 21.823576 112.89442 22.15521 113.265857 22.526646 113.63728 22.898079 113.96892 23.302176 114.26075 23.738938 114.55258 24.175696 114.799 24.636727 115.00002 25.12203 115.20104 25.607335 115.35279 26.107583 115.45527 26.622776 115.557758 27.137972 115.60899 27.658213 115.609 28.183503Z" fill="#ffc34e" fill-opacity=".5" />
<path transform="matrix(.7487996,0,0,.75346526,6.719208,-1.7469788)" stroke-width=".75" stroke-linecap="round" stroke-linejoin="round" fill="none" stroke="#ffc34e" d="M115.609 28.183503C115.60899 28.708788 115.557758 29.229029 115.45527 29.744223 115.35279 30.259419 115.20104 30.759667 115.00002 31.244967 114.799 31.730269 114.55258 32.1913 114.26075 32.62806 113.96892 33.064825 113.63728 33.46892 113.265857 33.840356 112.89442 34.21179 112.49032 34.543424 112.05356 34.83526 111.6168 35.12709 111.15576 35.373517 110.67046 35.57454 110.18516 35.775556 109.684909 35.927305 109.169719 36.02978 108.654529 36.13226 108.134288 36.1835 107.609 36.183504 107.08371 36.1835 106.56347 36.13226 106.04827 36.02978 105.533069 35.927305 105.03282 35.775556 104.54752 35.57454 104.06222 35.373517 103.60119 35.12709 103.16443 34.83526 102.72767 34.543424 102.32357 34.21179 101.95214 33.840356 101.5807 33.46892 101.24907 33.064825 100.95724 32.62806 100.6654 32.1913 100.41897 31.730269 100.21795 31.244967 100.01693 30.759667 99.86518 30.259419 99.76271 29.744223 99.66023 29.229029 99.60899 28.708788 99.609 28.183503 99.60899 27.658213 99.66023 27.137972 99.76271 26.622776 99.86518 26.107583 100.01693 25.607335 100.21795 25.12203 100.41897 24.636727 100.6654 24.175696 100.95724 23.738936 101.24907 23.302176 101.5807 22.898079 101.95214 22.526646 102.32357 22.15521 102.72766 21.823576 103.16442 21.531743 103.60118 21.239909 104.06222 20.99348 104.54752 20.792464 105.03282 20.591444 105.533069 20.439696 106.04827 20.33722 106.56347 20.23474 107.08371 20.1835 107.609 20.1835 108.134288 20.1835 108.654529 20.23474 109.169719 20.33722 109.684909 20.439696 110.18516 20.591444 110.67046 20.792464 111.15576 20.99348 111.6168 21.239909 112.05356 21.531743 112.49032 21.823576 112.89442 22.15521 113.265857 22.526646 113.63728 22.898079 113.96892 23.302176 114.26075 23.738938 114.55258 24.175696 114.799 24.636727 115.00002 25.12203 115.20104 25.607335 115.35279 26.107583 115.45527 26.622776 115.557758 27.137972 115.60899 27.658213 115.609 28.183503Z" />
<path transform="matrix(.7487996,0,0,.75346526,6.719208,-1.7469788)" d="M220.5511 52.7203C220.55109 53.245588 220.49985 53.765825 220.39737 54.281019 220.29488 54.79621 220.14313 55.29646 219.94211 55.78176 219.7411 56.267065 219.49468 56.728094 219.20284 57.164857 218.911 57.60162 218.57936 58.00572 218.20793 58.37715 217.83649 58.74858 217.43239 59.080217 216.99564 59.37205 216.55889 59.663885 216.09786 59.91031 215.61255 60.111333 215.12725 60.312349 214.627 60.464097 214.11182 60.566579 213.59662 60.669057 213.07639 60.720296 212.5511 60.7203 212.0258 60.720296 211.50556 60.669057 210.99034 60.566579 210.47515 60.464097 209.9749 60.312349 209.4896 60.11133 209.00429 59.910306 208.54326 59.66388 208.1065 59.372049 207.66976 59.08021 207.26566 58.74858 206.89423 58.37715 206.52278 58.00572 206.19115 57.60162 205.89933 57.164857 205.60749 56.728094 205.36106 56.267065 205.16004 55.78176 204.95902 55.29646 204.80727 54.79621 204.7048 54.281019 204.60234 53.765825 204.5511 53.245588 204.5511 52.7203 204.5511 52.19501 204.60234 51.674768 204.7048 51.159574 204.80727 50.644376 204.95902 50.144128 205.16004 49.65883 205.36106 49.173528 205.60749 48.712495 205.89933 48.275739 206.19115 47.838975 206.52278 47.43488 206.89423 47.063447 207.26566 46.69201 207.66974 46.360376 208.10649 46.06854 208.54326 45.776704 209.00429 45.530279 209.4896 45.329259 209.9749 45.128244 210.47515 44.976495 210.99034 44.874017 211.50556 44.771539 212.0258 44.7203 212.5511 44.7203 213.07639 44.7203 213.59662 44.771539 214.11182 44.874017 214.627 44.976495 215.12725 45.128244 215.61255 45.329259 216.09786 45.530279 216.55889 45.776704 216.99564 46.06854 217.43239 46.360376 217.83649 46.69201 218.20793 47.063447 218.57936 47.43488 218.911 47.838975 219.20282 48.275735 219.49468 48.712495 219.7411 49.173528 219.94211 49.65883 220.14313 50.144128 220.29488 50.644376 220.39736 51.159578 220.49985 51.67477 220.55109 52.19501 220.5511 52.7203Z" fill="#ffc34e" fill-opacity=".5" />
<path transform="matrix(.7487996,0,0,.75346526,6.719208,-1.7469788)" stroke-width=".75" stroke-linecap="round" stroke-linejoin="round" fill="none" stroke="#ffc34e" d="M220.5511 52.7203C220.55109 53.245588 220.49985 53.765825 220.39737 54.281019 220.29488 54.79621 220.14313 55.29646 219.94211 55.78176 219.7411 56.267065 219.49468 56.728094 219.20284 57.164857 218.911 57.60162 218.57936 58.00572 218.20793 58.37715 217.83649 58.74858 217.43239 59.080217 216.99564 59.37205 216.55889 59.663885 216.09786 59.91031 215.61255 60.111333 215.12725 60.312349 214.627 60.464097 214.11182 60.566579 213.59662 60.669057 213.07639 60.720296 212.5511 60.7203 212.0258 60.720296 211.50556 60.669057 210.99034 60.566579 210.47515 60.464097 209.9749 60.312349 209.4896 60.11133 209.00429 59.910306 208.54326 59.66388 208.1065 59.372049 207.66976 59.08021 207.26566 58.74858 206.89423 58.37715 206.52278 58.00572 206.19115 57.60162 205.89933 57.164857 205.60749 56.728094 205.36106 56.267065 205.16004 55.78176 204.95902 55.29646 204.80727 54.79621 204.7048 54.281019 204.60234 53.765825 204.5511 53.245588 204.5511 52.7203 204.5511 52.19501 204.60234 51.674768 204.7048 51.159574 204.80727 50.644376 204.95902 50.144128 205.16004 49.65883 205.36106 49.173528 205.60749 48.712495 205.89933 48.275739 206.19115 47.838975 206.52278 47.43488 206.89423 47.063447 207.26566 46.69201 207.66974 46.360376 208.10649 46.06854 208.54326 45.776704 209.00429 45.530279 209.4896 45.329259 209.9749 45.128244 210.47515 44.976495 210.99034 44.874017 211.50556 44.771539 212.0258 44.7203 212.5511 44.7203 213.07639 44.7203 213.59662 44.771539 214.11182 44.874017 214.627 44.976495 215.12725 45.128244 215.61255 45.329259 216.09786 45.530279 216.55889 45.776704 216.99564 46.06854 217.43239 46.360376 217.83649 46.69201 218.20793 47.063447 218.57936 47.43488 218.911 47.838975 219.20282 48.275735 219.49468 48.712495 219.7411 49.173528 219.94211 49.65883 220.14313 50.144128 220.29488 50.644376 220.39736 51.159578 220.49985 51.67477 220.55109 52.19501 220.5511 52.7203Z" />
<path transform="matrix(.7487996,0,0,.75346526,6.719208,-1.7469788)" d="M364.9601 86.8112C364.96009 87.33649 364.90885 87.85673 364.80638 88.37192 364.7039 88.88711 364.55213 89.38736 364.3511 89.87266 364.1501 90.357959 363.9037 90.81899 363.61186 91.25575 363.32 91.69251 362.98838 92.09661 362.61695 92.46805 362.2455 92.83948 361.8414 93.17111 361.40464 93.46295 360.96788 93.75478 360.50685 94.00121 360.02156 94.20223 359.53623 94.403247 359.03599 94.555 358.52079 94.657489 358.0056 94.75996 357.48539 94.811199 356.9601 94.8112 356.4348 94.811199 355.91456 94.75996 355.39933 94.65747 354.88417 94.55499 354.3839 94.403247 353.8986 94.202228 353.4133 94.001209 352.95228 93.754779 352.51554 93.462947 352.07875 93.17111 351.67466 92.83948 351.30323 92.46805 350.9318 92.09661 350.6002 91.69251 350.30836 91.255748 350.01649 90.818988 349.77006 90.357959 349.56904 89.87266 349.368 89.38736 349.21626 88.887119 349.1138 88.371929 349.0113 87.85673 348.96009 87.33649 348.9601 86.8112 348.96009 86.28591 349.0113 85.76566 349.11378 85.25047 349.21626 84.73528 349.368 84.23503 349.56904 83.749729 349.77006 83.26442 350.01649 82.80338 350.30833 82.36662 350.60017 81.92986 350.9318 81.525768 351.30323 81.15434 351.67466 80.782909 352.07875 80.45127 352.5155 80.15944 352.95228 79.86761 353.4133 79.62118 353.8986 79.42016 354.3839 79.21914 354.88417 79.06739 355.39933 78.96491 355.91456 78.86244 356.4348 78.8112 356.9601 78.8112 357.48539 78.8112 358.0056 78.86244 358.52079 78.96492 359.03599 79.06739 359.53623 79.21914 360.02156 79.42016 360.50685 79.62118 360.96788 79.8676 361.40464 80.15943 361.8414 80.45126 362.2455 80.782909 362.61695 81.15434 362.98838 81.525768 363.31999 81.92986 363.61183 82.36662 363.90367 82.80338 364.1501 83.26442 364.3511 83.749729 364.55213 84.23503 364.7039 84.73528 364.80638 85.25047 364.90885 85.76566 364.96009 86.28591 364.9601 86.8112Z" fill="#ffc34e" fill-opacity=".5" />
<path transform="matrix(.7487996,0,0,.75346526,6.719208,-1.7469788)" stroke-width=".75" stroke-linecap="round" stroke-linejoin="round" fill="none" stroke="#ffc34e" d="M364.9601 86.8112C364.96009 87.33649 364.90885 87.85673 364.80638 88.37192 364.7039 88.88711 364.55213 89.38736 364.3511 89.87266 364.1501 90.357959 363.9037 90.81899 363.61186 91.25575 363.32 91.69251 362.98838 92.09661 362.61695 92.46805 362.2455 92.83948 361.8414 93.17111 361.40464 93.46295 360.96788 93.75478 360.50685 94.00121 360.02156 94.20223 359.53623 94.403247 359.03599 94.555 358.52079 94.657489 358.0056 94.75996 357.48539 94.811199 356.9601 94.8112 356.4348 94.811199 355.91456 94.75996 355.39933 94.65747 354.88417 94.55499 354.3839 94.403247 353.8986 94.202228 353.4133 94.001209 352.95228 93.754779 352.51554 93.462947 352.07875 93.17111 351.67466 92.83948 351.30323 92.46805 350.9318 92.09661 350.6002 91.69251 350.30836 91.255748 350.01649 90.818988 349.77006 90.357959 349.56904 89.87266 349.368 89.38736 349.21626 88.887119 349.1138 88.371929 349.0113 87.85673 348.96009 87.33649 348.9601 86.8112 348.96009 86.28591 349.0113 85.76566 349.11378 85.25047 349.21626 84.73528 349.368 84.23503 349.56904 83.749729 349.77006 83.26442 350.01649 82.80338 350.30833 82.36662 350.60017 81.92986 350.9318 81.525768 351.30323 81.15434 351.67466 80.782909 352.07875 80.45127 352.5155 80.15944 352.95228 79.86761 353.4133 79.62118 353.8986 79.42016 354.3839 79.21914 354.88417 79.06739 355.39933 78.96491 355.91456 78.86244 356.4348 78.8112 356.9601 78.8112 357.48539 78.8112 358.0056 78.86244 358.52079 78.96492 359.03599 79.06739 359.53623 79.21914 360.02156 79.42016 360.50685 79.62118 360.96788 79.8676 361.40464 80.15943 361.8414 80.45126 362.2455 80.782909 362.61695 81.15434 362.98838 81.525768 363.31999 81.92986 363.61183 82.36662 363.90367 82.80338 364.1501 83.26442 364.3511 83.749729 364.55213 84.23503 364.7039 84.73528 364.80638 85.25047 364.90885 85.76566 364.96009 86.28591 364.9601 86.8112Z" />
<path transform="matrix(.7487996,0,0,.75346526,6.719208,-1.7469788)" stroke-width=".75" stroke-linecap="round" stroke-linejoin="round" fill="none" stroke="#e1effd" d="M29.234 43.665C29.234 43.665 30.325699 43.214 31.5903 43.1949 33.2323 43.1717 36.8938 44.4384 38.2992 43.9379 39.293699 43.5829 39.651399 43.2099 40.1014 42.4585" />
<path transform="matrix(.7487996,0,0,.75346526,6.719208,-1.7469788)" stroke-width=".75" stroke-linecap="round" stroke-linejoin="round" fill="none" stroke="#e1effd" d="M29.2001 43.6569C29.2001 43.6569 28.4265 42.763898 27.3053 42.179498 25.848 41.421899 22.0056 40.910398 20.9761 39.832899 20.2467 39.069398 20.094702 38.575597 20.029402 37.7021" />
</g>
<g clip-path="url(#clip_10)">
<g clip-path="url(#clip_11)">
<g clip-path="url(#clip_12)">
<g clip-path="url(#clip_13)">
<g clip-path="url(#clip_14)">
<path transform="matrix(.7487996,0,0,.75346526,6.719208,-1.7469788)" d="M19.6413 45.6191 18.7941 46.6884 15.8517 45.9911 14.9044 47.1268C16.1349 47.6122 17.0343 48.3163 17.6036 49.238103 18.0909 50.0301 18.231499 50.860204 18.026 51.728303 17.906399 52.2332 17.6915 52.675603 17.380999 53.0545 17.069998 53.434404 16.719899 53.738103 16.331198 53.9647 15.942497 54.1903 15.531398 54.3495 15.098298 54.4413 14.483598 54.570199 13.885899 54.5643 13.304398 54.4267 12.717498 54.288003 12.313698 54.088804 12.092998 53.83 11.872297 53.5712 11.790797 53.3241 11.846897 53.087804 11.878098 52.956 11.960697 52.8524 12.094897 52.7773 12.229697 52.702104 12.380998 52.6845 12.549498 52.7246 12.674498 52.753904 12.779497 52.7988 12.864398 52.858404 12.949398 52.918905 13.086598 53.052705 13.274998 53.262704 13.577198 53.592805 13.914198 53.801805 14.284298 53.8897 14.846798 54.023504 15.3906979 53.9317 15.915197 53.615304 16.439599 53.298906 16.772599 52.840906 16.914198 52.242303 17.051898 51.6622 16.989899 51.0763 16.729098 50.4845 16.468398 49.8917 16.036198 49.38 15.432697 48.9474 14.959097 48.6115 14.273498 48.3195 13.377497 48.0724L16.136298 44.7892 19.6413 45.6191Z" />
</g>
</g>
</g>
</g>
</g>
<g clip-path="url(#clip_15)">
<g clip-path="url(#clip_16)">
<g clip-path="url(#clip_17)">
<g clip-path="url(#clip_18)">
<g clip-path="url(#clip_19)">
<path transform="matrix(.7487996,0,0,.75346526,6.719208,-1.7469788)" d="M28.943 55.3534C28.562602 56.1659 28.0582 56.7401 27.4298 57.0761 26.8019 57.413 26.1725 57.506799 25.5426 57.3573 24.7931 57.1796 24.212 56.7157 23.8004 55.9657 23.3893 55.2157 23.3087 54.3153 23.5577 53.2636 23.798899 52.245 24.303799 51.4902 25.0723 50.9999 25.840802 50.5096 26.6582 50.3671 27.5235 50.5722 28.172902 50.7265 28.6671 51.0214 29.0049 51.457 29.3438 51.8945 29.4697 52.2939 29.3838 52.6572 29.3418 52.8359 29.2481 52.9668 29.104 53.0498 28.9595 53.1328 28.7822 53.149404 28.5708 53.0996 28.287102 53.0322 28.0942 52.8916 27.9922 52.678705 27.934102 52.559606 27.9248 52.358404 27.963902 52.074205 28.003903 51.789007 27.956603 51.553705 27.823302 51.368104 27.687602 51.186506 27.4717 51.0605 27.1739 50.990205 26.692502 50.875905 26.2642 50.959005 25.8878 51.238206 25.3893 51.608304 25.0499 52.172807 24.8697 52.932508 24.6866 53.705907 24.7188 54.433507 24.9659 55.118009 25.212 55.800607 25.6651 56.22051 26.323801 56.37681 26.795002 56.48811 27.255902 56.430509 27.7056 56.203908 28.021502 56.048608 28.371602 55.716608 28.7569 55.204908L28.943 55.3534Z" />
<path transform="matrix(.7487996,0,0,.75346526,6.719208,-1.7469788)" d="M33.8859 57.3398 37.0837 53.04 39.3122 53.567304 39.2482 53.835905C38.9211 53.758806 38.6964 53.739206 38.5729 53.7773 38.449899 53.815404 38.3458 53.875 38.2604 53.953104 38.1759 54.033205 38.0724 54.332 37.949399 54.8506L37.1349 58.2891C37.0285 58.7364 36.982599 59.0313 36.9977 59.1719 37.0123 59.3125 37.0831 59.4317 37.2091 59.531305 37.335599 59.631906 37.545999 59.715906 37.838998 59.785203L37.776498 60.0469 34.5812 59.29 34.6437 59.0283C35.0382 59.1221 35.3195 59.1123 35.4879 59 35.6564 58.8887 35.8067 58.5566 35.9376 58.004899L36.8609 54.1074 33.2398 58.9726 32.9874 58.912099 31.891201 52.9297 30.967902 56.827199C30.861502 57.2754 30.817502 57.570398 30.8346 57.711 30.8522 57.8526 30.922 57.9727 31.046 58.0714 31.17 58.171 31.379 58.255 31.671999 58.3243L31.609999 58.586 29.085598 57.9883 29.147599 57.7266C29.576298 57.8272 29.868298 57.815504 30.0246 57.691404 30.1808 57.566404 30.322499 57.2373 30.448399 56.7041L31.263298 53.2666C31.382899 52.762704 31.426899 52.458 31.395598 52.3535 31.364296 52.249 31.302798 52.1465 31.209097 52.0469 31.116297 51.948305 30.898598 51.857404 30.557698 51.7774L30.621197 51.5079 32.943498 52.0587 33.8859 57.3398Z" />
</g>
</g>
</g>
</g>
</g>
<g clip-path="url(#clip_20)">
</g>
<g clip-path="url(#clip_21)">
</g>
<g clip-path="url(#clip_22)">
</g>
<g clip-path="url(#clip_23)">
</g>
<g clip-path="url(#clip_24)">
</g>
<g clip-path="url(#clip_25)">
</g>
<g clip-path="url(#clip_26)">
</g>
<g clip-path="url(#clip_27)">
</g>
<g clip-path="url(#clip_28)">
</g>
<g clip-path="url(#clip_29)">
</g>
<g clip-path="url(#clip_30)">
<g clip-path="url(#clip_31)">
</g>
</g>
<g clip-path="url(#clip_32)">
</g>
<g clip-path="url(#clip_33)">
</g>
<g clip-path="url(#clip_34)">
</g>
<g clip-path="url(#clip_35)">
</g>
<g clip-path="url(#clip_36)">
</g>
</g>
</g>
</svg>