<svg xmlns="http://www.w3.org/2000/svg" version="1.1" width="324" height="297" viewBox="0 0 108 99" fill="#e1effd">
<defs>
<clipPath id="clip_1">
<path transform="matrix(1,0,0,-1,-447,535.92)" d="M447 436.91999H555V535.92H447Z" clip-rule="evenodd" />
</clipPath>
<clipPath id="clip_2">
<path transform="matrix(.24,0,0,.24,-447,-306)" d="M118.75 118.75H2362.793V3390.8204H118.75Z" clip-rule="evenodd" />
</clipPath>
<clipPath id="clip_3">
<path transform="matrix(.24,0,0,.24,-447,-306)" d="M118.75 118.75H2362.793V3390.8204H118.75Z" />
</clipPath>
<clipPath id="clip_4">
<path transform="matrix(.24,0,0,.24,-447,-306)" d="M503.125 170.3125C503.12498 167.20449 503.71965 164.21477 504.909 161.34334 506.09837 158.47193 507.7919 155.93737 509.98963 153.73969 512.1873 151.54199 514.72189 149.84845 517.5933 148.65906 520.4647 147.46968 523.4544 146.875 526.5625 146.875 529.6705 146.875 532.66018 147.46968 535.53158 148.65906 538.40298 149.84845 540.93759 151.54199 543.13528 153.73969 545.33297 155.93737 547.0264 158.47193 548.2158 161.34334 549.4052 164.21477 549.99996 167.20449 550 170.3125 549.99996 173.4205 549.4052 176.41022 548.2158 179.28163 547.0264 182.15305 545.33297 184.6876 543.13528 186.88532 540.93759 189.083 538.40298 190.77652 535.53158 191.96593 532.66018 193.1553 529.6705 193.74999 526.5625 193.75 523.4544 193.74999 520.46469 193.15529 517.59329 191.9659 514.72189 190.77652 512.1873 189.083 509.98963 186.88532 507.7919 184.6876 506.09837 182.15305 504.909 179.28163 503.71965 176.41022 503.12498 173.4205 503.125 170.3125Z" />
</clipPath>
<clipPath id="clip_5">
<path transform="matrix(.24,0,0,.24,-447,-306)" d="M118.75 118.75H2362.793V3390.8204H118.75Z" clip-rule="evenodd" />
</clipPath>
<clipPath id="clip_6">
<path transform="matrix(.24,0,0,.24,-447,-306)" d="M846.875 400H1637.5V1103.125H846.875Z" clip-rule="evenodd" />
</clipPath>
<clipPath id="clip_7">
<path transform="matrix(.24,0,0,.24,-447,-306)" d="M1853.125 1271.875H2318.75V1693.75H1853.125Z" clip-rule="evenodd" />
</clipPath>
<clipPath id="clip_8">
<path transform="matrix(.24,0,0,.24,-447,-306)" d="M118.75 118.75H2362.793V3390.8204H118.75Z" clip-rule="evenodd" />
</clipPath>
<clipPath id="clip_9">
<path transform="matrix(.24,0,0,.24,-447,-306)" d="M118.75 118.75H2362.793V3390.8204H118.75Z" />
</clipPath>
<clipPath id="clip_10">
<path transform="matrix(.24,0,0,.24,-447,-306)" d="M503.125 1201.5625C503.12498 1198.4545 503.71965 1195.4646 504.909 1192.5932 506.09837 1189.7217 507.7919 1187.1873 509.98963 1184.9896 512.1873 1182.7919 514.72189 1181.0983 517.5933 1179.9089 520.4647 1178.7196 523.4544 1178.125 526.5625 1178.125 529.6705 1178.125 532.66018 1178.7196 535.53158 1179.9089 538.40298 1181.0983 540.93759 1182.7919 543.13528 1184.9896 545.33297 1187.1873 547.0264 1189.7217 548.2158 1192.5932 549.4052 1195.4646 549.99996 1198.4545 550 1201.5625 549.99996 1204.6704 549.4052 1207.66 548.2158 1210.5315 547.0264 1213.403 545.33297 1215.9375 543.13528 1218.1353 540.93759 1220.3329 538.40298 1222.0264 535.53158 1223.2157 532.66018 1224.4052 529.6705 1224.9999 526.5625 1225 523.4544 1224.9999 520.46469 1224.4052 517.59329 1223.2157 514.72189 1222.0264 512.1873 1220.3329 509.98963 1218.1353 507.7919 1215.9375 506.09837 1213.403 504.909 1210.5315 503.71965 1207.66 503.12498 1204.6704 503.125 1201.5625Z" />
</clipPath>
<clipPath id="clip_11">
<path transform="matrix(.24,0,0,.24,-447,-306)" d="M118.75 118.75H2362.793V3390.8204H118.75Z" clip-rule="evenodd" />
</clipPath>
<clipPath id="clip_12">
<path transform="matrix(.24,0,0,.24,-447,-306)" d="M118.75 118.75H2362.793V3390.8204H118.75Z" />
</clipPath>
<clipPath id="clip_13">
<path transform="matrix(.24,0,0,.24,-447,-306)" d="M503.125 1839.0625C503.12498 1835.9544 503.71965 1832.9646 504.909 1830.0932 506.09837 1827.2218 507.7919 1824.6873 509.98963 1822.4896 512.1873 1820.2919 514.72189 1818.5983 517.5933 1817.4089 520.4647 1816.2196 523.4544 1815.625 526.5625 1815.625 529.6705 1815.625 532.66018 1816.2197 535.53158 1817.409 538.40298 1818.5984 540.93759 1820.2919 543.13528 1822.4896 545.33297 1824.6873 547.0264 1827.2218 548.2158 1830.0932 549.4052 1832.9646 549.99996 1835.9544 550 1839.0625 549.99996 1842.1704 549.4052 1845.16 548.2158 1848.0314 547.0264 1850.9027 545.33297 1853.4373 543.13528 1855.6351 540.93759 1857.8328 538.40298 1859.5264 535.53158 1860.7157 532.66018 1861.905 529.6705 1862.4999 526.5625 1862.5 523.4544 1862.4999 520.46469 1861.905 517.59329 1860.7157 514.72189 1859.5264 512.1873 1857.8328 509.98963 1855.6351 507.7919 1853.4373 506.09837 1850.9027 504.909 1848.0314 503.71965 1845.16 503.12498 1842.1704 503.125 1839.0625Z" />
</clipPath>
<clipPath id="clip_14">
<path transform="matrix(.24,0,0,.24,-447,-306)" d="M118.75 118.75H2362.793V3390.8204H118.75Z" clip-rule="evenodd" />
</clipPath>
<clipPath id="clip_15">
<path transform="matrix(.24,0,0,.24,-447,-306)" d="M721.875 2015.625H1765.625V2309.375H721.875Z" clip-rule="evenodd" />
</clipPath>
<clipPath id="clip_16">
<path transform="matrix(.24,0,0,.24,-447,-306)" d="M118.75 118.75H2362.793V3390.8204H118.75Z" clip-rule="evenodd" />
</clipPath>
<clipPath id="clip_17">
<path transform="matrix(.24,0,0,.24,-447,-306)" d="M1850 2562.5H2318.75V3137.5H1850Z" clip-rule="evenodd" />
</clipPath>
<clipPath id="clip_18">
<path transform="matrix(.24,0,0,.24,-447,-306)" d="M118.75 118.75H2362.793V3390.8204H118.75Z" clip-rule="evenodd" />
</clipPath>
<clipPath id="clip_19">
<path transform="matrix(.24,0,0,.24,-447,-306)" d="M118.75 118.75H2362.793V3390.8204H118.75Z" />
</clipPath>
<clipPath id="clip_20">
<path transform="matrix(.24,0,0,.24,-447,-306)" d="M503.125 2492.1876C503.12498 2489.0794 503.71965 2486.0897 504.909 2483.2183 506.09837 2480.3468 507.7919 2477.812 509.98963 2475.6146 512.1873 2473.4168 514.72189 2471.7232 517.5933 2470.5338 520.4647 2469.3446 523.4544 2468.75 526.5625 2468.75 529.6705 2468.75 532.66018 2469.3446 535.53158 2470.5338 538.40298 2471.7232 540.93759 2473.4168 543.13528 2475.6146 545.33297 2477.812 547.0264 2480.3468 548.2158 2483.2183 549.4052 2486.0897 549.99996 2489.0794 550 2492.1876 549.99996 2495.2955 549.4052 2498.285 548.2158 2501.1563 547.0264 2504.0277 545.33297 2506.5623 543.13528 2508.76 540.93759 2510.9576 538.40298 2512.6512 535.53158 2513.8406 532.66018 2515.03 529.6705 2515.6248 526.5625 2515.625 523.4544 2515.6248 520.46469 2515.03 517.59329 2513.8406 514.72189 2512.6512 512.1873 2510.9576 509.98963 2508.76 507.7919 2506.5623 506.09837 2504.0277 504.909 2501.1563 503.71965 2498.285 503.12498 2495.2955 503.125 2492.1876Z" />
</clipPath>
<clipPath id="clip_21">
<path transform="matrix(.24,0,0,.24,-447,-306)" d="M118.75 118.75H2362.793V3390.8204H118.75Z" clip-rule="evenodd" />
</clipPath>
<clipPath id="clip_22">
<path transform="matrix(.24,0,0,.24,-447,-306)" d="M956.25 2700H1253.125V2756.25H956.25Z" clip-rule="evenodd" />
</clipPath>
<clipPath id="clip_23">
<path transform="matrix(.24,0,0,.24,-447,-306)" d="M118.75 118.75H2362.793V3390.8204H118.75Z" clip-rule="evenodd" />
</clipPath>
<clipPath id="clip_24">
<path transform="matrix(.24,0,0,.24,-447,-306)" d="M0 62.5H393.75V100H0Z" clip-rule="evenodd" />
</clipPath>
<clipPath id="clip_25">
<path transform="matrix(.24,0,0,.24,-447,-306)" d="M393.75 62.5H2478.125V100H393.75Z" clip-rule="evenodd" />
</clipPath>
<clipPath id="clip_26">
<path transform="matrix(.24,0,0,.24,-447,-306)" d="M0 3409.375H2309.375V3446.875H0Z" clip-rule="evenodd" />
</clipPath>
<clipPath id="clip_27">
<path transform="matrix(.24,0,0,.24,-447,-306)" d="M2309.375 3409.375H2478.125V3446.875H2309.375Z" clip-rule="evenodd" />
</clipPath>
</defs>
<g clip-path="url(#clip_1)">
<g clip-path="url(#clip_2)">
</g>
<g clip-path="url(#clip_3)">
<g clip-path="url(#clip_4)">
</g>
</g>
<g clip-path="url(#clip_5)">
</g>
<g clip-path="url(#clip_6)">
</g>
<g clip-path="url(#clip_7)">
<path transform="matrix(.7523631,0,0,.7464614,-2.25,-.74890139)" d="M110.308 121.217H15.308V76.217H57.308V7.217H68.169L68.308 76.217H110.308V121.217Z" fill="#54c4ff" fill-opacity=".5" />
<path transform="matrix(.7523631,0,0,.7464614,-2.25,-.74890139)" d="M135.352 103.206 136.792 102.515H136.936V107.423C136.936 107.74899 136.95001 107.951999 136.97801 108.032 137.005 108.111 137.06302 108.173 137.15001 108.215999 137.238 108.258998 137.41501 108.283 137.682 108.287998V108.44699H135.457V108.287998C135.73601 108.283 135.916 108.258998 135.998 108.217998 136.079 108.176998 136.136 108.120998 136.168 108.050998 136.2 107.981998 136.216 107.771999 136.216 107.423V104.285999C136.216 103.86199 136.201 103.590999 136.172 103.47199 136.151 103.37999 136.114 103.312999 136.061 103.26999 136.007 103.22799 135.94301 103.206989 135.86801 103.206989 135.76001 103.206989 135.61002 103.249988 135.41802 103.33999L135.35202 103.205989 135.352 103.206Z" />
<path transform="matrix(.7523631,0,0,.7464614,-2.25,-.74890139)" d="M139.361 49.317 138.94699 50.436H135.45699V50.277C136.48299 49.357004 137.20598 48.606 137.62499 48.022 138.04399 47.44 138.25399 46.906999 138.25399 46.424 138.25399 46.055 138.13898 45.752 137.90898 45.515 137.67899 45.278 137.40398 45.159 137.08399 45.159 136.79299 45.159 136.53199 45.243 136.30098 45.411 136.06998 45.577 135.89899 45.822999 135.78798 46.145H135.62699C135.69899 45.617 135.88698 45.211 136.18799 44.928 136.489 44.645006 136.86499 44.503004 137.316 44.503004 137.795 44.503004 138.19699 44.654005 138.51799 44.957 138.83899 45.26 138.99999 45.618 138.99999 46.03 138.99999 46.323999 138.92998 46.618 138.78998 46.913 138.57498 47.376 138.22599 47.865999 137.74298 48.383 137.01798 49.16 136.56598 49.628999 136.38599 49.788999H137.93099C138.24498 49.788999 138.46498 49.776998 138.59198 49.754999 138.71799 49.732 138.83199 49.684999 138.93498 49.614999 139.03699 49.545999 139.12499 49.446 139.20099 49.316999 139.20099 49.316999 139.361 49.316999 139.361 49.316999V49.317Z" />
<path transform="matrix(.7523631,0,0,.7464614,-2.25,-.74890139)" d="M132.824 94.038 130.709 101.22C131.622 99.868007 132.335 98.972 132.84799 98.528 133.35999 98.084 133.849 97.863 134.316 97.863 134.55699 97.863 134.75699 97.943 134.91899 98.107 135.079 98.269008 135.159 98.486 135.159 98.757 135.159 99.082 135.08899 99.477008 134.94899 99.941L134.02999 103.039C133.91498 103.414 133.85698 103.621 133.85698 103.66 133.85698 103.73 133.87798 103.787 133.91999 103.831 133.96199 103.875 134.01198 103.897 134.06598 103.897 134.13098 103.897 134.20699 103.865009 134.29299 103.8 134.57898 103.583 134.86199 103.282009 135.14398 102.898L135.37699 103.039C135.20598 103.301 134.96898 103.588008 134.66498 103.901 134.36098 104.214 134.10099 104.431 133.88298 104.551 133.66399 104.672008 133.46999 104.733 133.29898 104.733 133.11298 104.733 132.96099 104.675 132.84398 104.559 132.72599 104.443 132.66698 104.294 132.66698 104.111 132.66698 103.894 132.75399 103.49 132.92998 102.898L133.79598 99.941C133.90598 99.57 133.96198 99.28 133.96198 99.068 133.96198 98.969 133.92998 98.89 133.86698 98.832 133.80397 98.772 133.72197 98.742008 133.62297 98.742008 133.47698 98.742008 133.31098 98.797008 133.12598 98.90501 132.78398 99.11201 132.39098 99.49701 131.94298 100.05801 131.82299 100.211009 131.42198 100.828 130.73899 101.908008 130.52799 102.254009 130.35498 102.631008 130.21898 103.039L129.73798 104.556H128.60797L131.08597 96.096 131.34897 95.178C131.34897 95.05 131.29497 94.937007 131.18798 94.838008 131.07997 94.739009 130.94797 94.69 130.79198 94.69 130.70098 94.69 130.56298 94.706 130.37798 94.735L130.21997 94.756008V94.469L132.82398 94.038H132.824Z" />
<path transform="matrix(.7523631,0,0,.7464614,-2.25,-.74890139)" d="M132.824 36.049 130.709 43.23C131.622 41.878999 132.335 40.982 132.84799 40.538 133.35999 40.094999 133.849 39.872999 134.316 39.872999 134.55699 39.872999 134.75699 39.954 134.91899 40.116998 135.079 40.279996 135.159 40.496999 135.159 40.767 135.159 41.092 135.08899 41.487 134.94899 41.950998L134.02999 45.049997C133.91498 45.424997 133.85698 45.631998 133.85698 45.670995 133.85698 45.739995 133.87798 45.796995 133.91999 45.840993 133.96298 45.88599 134.01198 45.906995 134.06598 45.906995 134.13098 45.906995 134.20699 45.875997 134.29299 45.810995 134.57898 45.593996 134.86199 45.29299 135.14398 44.908994L135.37699 45.04999C135.20598 45.311994 134.96898 45.59899 134.66498 45.91099 134.36098 46.22399 134.10099 46.44099 133.88298 46.560995 133.66399 46.68199 133.46999 46.742994 133.29898 46.742994 133.11298 46.742994 132.96099 46.684995 132.84398 46.568994 132.72599 46.45399 132.66698 46.303995 132.66698 46.121995 132.66698 45.904996 132.75399 45.500997 132.92998 44.908994L133.79598 41.950994C133.90598 41.580995 133.96198 41.289995 133.96198 41.07899 133.96198 40.978994 133.92998 40.90099 133.86698 40.84199 133.80397 40.782995 133.72197 40.75299 133.62297 40.75299 133.47698 40.75299 133.31098 40.80799 133.12598 40.91499 132.78398 41.12199 132.39098 41.50699 131.94298 42.06899 131.82299 42.22099 131.42198 42.83899 130.73899 43.918989 130.52799 44.26399 130.35498 44.640989 130.21898 45.049989L129.73798 46.565988H128.60797L131.08597 38.105989 131.34897 37.188989C131.34897 37.059988 131.29497 36.946989 131.18798 36.848989 131.07997 36.74999 130.94797 36.70099 130.79198 36.70099 130.70098 36.70099 130.56298 36.71599 130.37798 36.744989L130.21997 36.766988V36.47899L132.82398 36.04899 132.824 36.049Z" />
<path transform="matrix(.7523631,0,0,.7464614,-2.25,-.74890139)" stroke-width=".75" stroke-linecap="round" stroke-linejoin="round" fill="none" stroke="#e1effd" d="M110.308 63.549V121.217H15.308V63.549" />
<path transform="matrix(.7523631,0,0,.7464614,-2.25,-.74890139)" stroke-width=".75" stroke-linecap="round" stroke-linejoin="round" fill="none" stroke="#e1effd" d="M68.308 88.217V7.217H57.308V88.217" />
<path transform="matrix(.7523631,0,0,.7464614,-2.25,-.74890139)" d="M66.8865 106.675 66.1105 115.146C66.070499 115.54201 66.0505 115.802 66.0505 115.927 66.0505 116.127 66.0875 116.28 66.1625 116.385 66.2585 116.531009 66.3875 116.638 66.5505 116.708 66.7135 116.777 66.9885 116.812 67.375499 116.812L67.292499 117.09H63.271497L63.354497 116.812H63.527498C63.853498 116.812 64.1205 116.743 64.32549 116.602 64.4715 116.506999 64.584499 116.349 64.66449 116.128 64.72049 115.974 64.77249 115.606998 64.82249 115.032L64.94249 113.74H62.02149L60.982488 115.144C60.747488 115.459 60.598489 115.686 60.538488 115.824 60.478487 115.962 60.448488 116.090999 60.448488 116.211 60.448488 116.371 60.513486 116.508998 60.643487 116.624 60.774488 116.739 60.990488 116.802 61.290487 116.812007L61.208486 117.090007H58.188486L58.271486 116.812007C58.642484 116.797008 58.970487 116.673007 59.253484 116.441 59.536485 116.208 59.959486 115.712009 60.522485 114.950008L66.62148 106.675H66.88648 66.8865ZM65.3945 109.176 62.4355 113.194H65.0025L65.3945 109.176Z" />
<path transform="matrix(.7523631,0,0,.7464614,-2.25,-.74890139)" stroke-width=".75" stroke-linecap="round" stroke-linejoin="round" fill="none" stroke="#e1effd" d="M6.834 121.842H134.782" />
<path transform="matrix(.7523631,0,0,.7464614,-2.25,-.74890139)" stroke-width=".75" stroke-linecap="round" stroke-linejoin="round" fill="none" stroke="#e1effd" d="M126.835 128.934 134.782 121.842" />
<path transform="matrix(.7523631,0,0,.7464614,-2.25,-.74890139)" stroke-width=".75" stroke-linecap="round" stroke-linejoin="round" fill="none" stroke="#e1effd" d="M118.835 128.934 126.782 121.842" />
<path transform="matrix(.7523631,0,0,.7464614,-2.25,-.74890139)" stroke-width=".75" stroke-linecap="round" stroke-linejoin="round" fill="none" stroke="#e1effd" d="M110.835 128.934 118.782 121.842" />
<path transform="matrix(.7523631,0,0,.7464614,-2.25,-.74890139)" stroke-width=".75" stroke-linecap="round" stroke-linejoin="round" fill="none" stroke="#e1effd" d="M110.835 128.934 118.782 121.842" />
<path transform="matrix(.7523631,0,0,.7464614,-2.25,-.74890139)" stroke-width=".75" stroke-linecap="round" stroke-linejoin="round" fill="none" stroke="#e1effd" d="M102.835 128.934 110.782 121.842" />
<path transform="matrix(.7523631,0,0,.7464614,-2.25,-.74890139)" stroke-width=".75" stroke-linecap="round" stroke-linejoin="round" fill="none" stroke="#e1effd" d="M94.835 128.934 102.782 121.842" />
<path transform="matrix(.7523631,0,0,.7464614,-2.25,-.74890139)" stroke-width=".75" stroke-linecap="round" stroke-linejoin="round" fill="none" stroke="#e1effd" d="M94.835 128.934 102.782 121.842" />
<path transform="matrix(.7523631,0,0,.7464614,-2.25,-.74890139)" stroke-width=".75" stroke-linecap="round" stroke-linejoin="round" fill="none" stroke="#e1effd" d="M86.835 128.934 94.782 121.842" />
<path transform="matrix(.7523631,0,0,.7464614,-2.25,-.74890139)" stroke-width=".75" stroke-linecap="round" stroke-linejoin="round" fill="none" stroke="#e1effd" d="M78.835 128.934 86.782 121.842" />
<path transform="matrix(.7523631,0,0,.7464614,-2.25,-.74890139)" stroke-width=".75" stroke-linecap="round" stroke-linejoin="round" fill="none" stroke="#e1effd" d="M70.835 128.934 78.782 121.842" />
<path transform="matrix(.7523631,0,0,.7464614,-2.25,-.74890139)" stroke-width=".75" stroke-linecap="round" stroke-linejoin="round" fill="none" stroke="#e1effd" d="M62.835 128.934 70.782 121.842" />
<path transform="matrix(.7523631,0,0,.7464614,-2.25,-.74890139)" stroke-width=".75" stroke-linecap="round" stroke-linejoin="round" fill="none" stroke="#e1effd" d="M54.834 128.934 62.782 121.842" />
<path transform="matrix(.7523631,0,0,.7464614,-2.25,-.74890139)" stroke-width=".75" stroke-linecap="round" stroke-linejoin="round" fill="none" stroke="#e1effd" d="M46.834 128.934 54.783 121.842" />
<path transform="matrix(.7523631,0,0,.7464614,-2.25,-.74890139)" stroke-width=".75" stroke-linecap="round" stroke-linejoin="round" fill="none" stroke="#e1effd" d="M46.834 128.934 54.783 121.842" />
<path transform="matrix(.7523631,0,0,.7464614,-2.25,-.74890139)" stroke-width=".75" stroke-linecap="round" stroke-linejoin="round" fill="none" stroke="#e1effd" d="M38.834 128.934 46.783 121.842" />
<path transform="matrix(.7523631,0,0,.7464614,-2.25,-.74890139)" stroke-width=".75" stroke-linecap="round" stroke-linejoin="round" fill="none" stroke="#e1effd" d="M30.834 128.934 38.783 121.842" />
<path transform="matrix(.7523631,0,0,.7464614,-2.25,-.74890139)" stroke-width=".75" stroke-linecap="round" stroke-linejoin="round" fill="none" stroke="#e1effd" d="M30.834 128.934 38.783 121.842" />
<path transform="matrix(.7523631,0,0,.7464614,-2.25,-.74890139)" stroke-width=".75" stroke-linecap="round" stroke-linejoin="round" fill="none" stroke="#e1effd" d="M22.834 128.934 30.783 121.842" />
<path transform="matrix(.7523631,0,0,.7464614,-2.25,-.74890139)" stroke-width=".75" stroke-linecap="round" stroke-linejoin="round" fill="none" stroke="#e1effd" d="M14.834 128.934 22.783 121.842" />
<path transform="matrix(.7523631,0,0,.7464614,-2.25,-.74890139)" stroke-width=".75" stroke-linecap="round" stroke-linejoin="round" fill="none" stroke="#e1effd" d="M6.834 128.934 14.783 121.842" />
<path transform="matrix(.7523631,0,0,.7464614,-2.25,-.74890139)" d="M120.71 114.2361 124.306 109.4271 120.728 121.4271 117.103 109.4451 120.71 114.2361Z" fill="#ffc34e" />
<path transform="matrix(.7523631,0,0,.7464614,-2.25,-.74890139)" d="M120.7 83.774 117.103 88.584 120.681 76.584 124.306 88.565 120.7 83.774Z" fill="#ffc34e" />
<path transform="matrix(.7523631,0,0,.7464614,-2.25,-.74890139)" d="M124.306 63.868 120.681 75.85 117.103 63.85 120.7 68.659 124.306 63.868Z" fill="#ffc34e" />
<path transform="matrix(.7523631,0,0,.7464614,-2.25,-.74890139)" d="M120.7 14.8113 117.103 19.6213 120.681 7.6212999 124.306 19.6023 120.7 14.8113Z" fill="#ffc34e" />
<path transform="matrix(.7523631,0,0,.7464614,-2.25,-.74890139)" stroke-width=".75" stroke-linecap="round" stroke-linejoin="round" fill="none" stroke="#e1effd" d="M68.308 7.217H124.306" />
<path transform="matrix(.7523631,0,0,.7464614,-2.25,-.74890139)" stroke-width="1" stroke-linecap="round" stroke-linejoin="round" fill="none" stroke="#ffc34e" d="M120.704 13.217V70.217" />
<path transform="matrix(.7523631,0,0,.7464614,-2.25,-.74890139)" stroke-width="1" stroke-linecap="round" stroke-linejoin="round" fill="none" stroke="#ffc34e" d="M120.704 82.217V117.217" />
<path transform="matrix(.7523631,0,0,.7464614,-2.25,-.74890139)" stroke-width=".75" stroke-linecap="round" stroke-linejoin="round" fill="none" stroke="#e1effd" d="M110.308 76.217H124.306" />
<path transform="matrix(.7523631,0,0,.7464614,-2.25,-.74890139)" d="M64.936008 121.216C64.936 121.497928 64.88205 121.76912 64.77416 122.02958 64.666278 122.29004 64.51266 122.51995 64.31331 122.71931 64.11395 122.918659 63.884046 123.07227 63.62358 123.18016 63.363119 123.28805 63.091928 123.341999 62.810007 123.342 62.528078 123.341999 62.256879 123.28804 61.99641 123.18015 61.735948 123.072269 61.50604 122.91865 61.30669 122.7193 61.107339 122.51995 60.953718 122.29004 60.845827 122.02958 60.737939 121.76912 60.684 121.497928 60.684003 121.216 60.684 120.934078 60.737939 120.66287 60.845827 120.402408 60.953718 120.141948 61.107339 119.91203 61.30669 119.712688 61.50604 119.51333 61.735948 119.35971 61.99641 119.25182 62.256879 119.14394 62.528078 119.090007 62.810007 119.090007 63.091928 119.090007 63.36312 119.14394 63.623586 119.25182 63.884046 119.35971 64.11395 119.51333 64.31331 119.712688 64.51266 119.91203 64.666278 120.141948 64.77416 120.402408 64.88205 120.66287 64.936 120.934078 64.936008 121.216Z" fill="#ffc34e" />
<path transform="matrix(.7523631,0,0,.7464614,-2.25,-.74890139)" d="M89.8 127.4V129.88H89.03001V123.44H89.8V124.15C89.96 123.87 90.16334 123.66334 90.41 123.53 90.65667 123.39667 90.950008 123.33 91.29 123.33 91.85667 123.33 92.316669 123.55667 92.67 124.01 93.02333 124.46333 93.2 125.05334 93.2 125.78 93.2 126.51333 93.02333 127.10333 92.67 127.549999 92.316669 128.00333 91.85667 128.23 91.29 128.23 90.95 128.23 90.65667 128.16333 90.41 128.03 90.16334 127.89667 89.96 127.69 89.8 127.409999V127.4ZM92.41 125.770008C92.41 125.20334 92.293338 124.763339 92.060009 124.450008 91.826679 124.130008 91.51001 123.97 91.11001 123.97 90.70334 123.97 90.38334 124.130008 90.15001 124.450008 89.91668 124.770008 89.80001 125.21001 89.80001 125.770008 89.80001 126.33667 89.91668 126.78001 90.15001 127.100009 90.38334 127.420009 90.70334 127.58001 91.11001 127.58001 91.51668 127.58001 91.83334 127.420009 92.060009 127.100009 92.293338 126.78001 92.41 126.33667 92.41 125.770008Z" fill-opacity=".4" />
<path transform="matrix(.7523631,0,0,.7464614,-2.25,-.74890139)" d="M98.4 125.6V125.979999H94.880008C94.91334 126.50666 95.07001 126.909999 95.350009 127.189998 95.63667 127.46333 96.03334 127.6 96.54001 127.6 96.83334 127.6 97.11668 127.56333 97.39001 127.49 97.670009 127.416667 97.94334 127.30666 98.21001 127.159999V127.88C97.93667 127.99333 97.653339 128.08333 97.36001 128.15 97.07334 128.20999 96.78001 128.23999 96.48001 128.23999 95.733348 128.23999 95.14334 128.02332 94.710018 127.58999 94.27668 127.156658 94.06001 126.569988 94.06001 125.82999 94.06001 125.06332 94.26668 124.45665 94.680019 124.00999 95.09335 123.556659 95.65002 123.32999 96.35001 123.32999 96.976688 123.32999 97.47335 123.53332 97.84001 123.93999 98.20668 124.33999 98.390018 124.889987 98.390018 125.58999L98.4 125.6ZM97.630008 125.369998C97.62334 124.95 97.50667 124.61666 97.28001 124.369998 97.053348 124.11666 96.75001 123.99 96.37 123.99 95.94334 123.99 95.600009 124.11 95.340007 124.35 95.08667 124.59 94.94 124.93 94.9 125.369998H97.630008Z" fill-opacity=".4" />
<path transform="matrix(.7523631,0,0,.7464614,-2.25,-.74890139)" d="M103.2 127.5H105.18V123.45H105.95V128.12H99.689998V123.45H100.45999V127.5H102.42999V123.45H103.19999L103.2 127.5Z" fill-opacity=".4" />
<path transform="matrix(.7523631,0,0,.7464614,-2.25,-.74890139)" d="M109.4 128.6C109.18 129.15334 108.97 129.51668 108.770008 129.69 108.56334 129.85668 108.29001 129.94 107.950008 129.94H107.340007V129.3H107.79C108.003337 129.3 108.166667 129.25 108.28 129.15001 108.39333 129.05002 108.52333 128.81334 108.67 128.44L108.81 128.09 106.92 123.5H107.729999L109.189998 127.15 110.649997 123.5H111.45999L109.4 128.6Z" fill-opacity=".4" />
<path transform="matrix(.7523631,0,0,.7464614,-2.25,-.74890139)" d="M114.4 124C113.986667 124 113.66333 124.16 113.43 124.48 113.19 124.8 113.07 125.240009 113.07 125.8 113.07 126.36 113.18667 126.8 113.42 127.12 113.659999 127.44 113.986667 127.600009 114.4 127.600009 114.80667 127.600009 115.130008 127.44 115.37 127.12 115.61 126.8 115.73 126.36 115.73 125.8 115.73 125.246669 115.61 124.810009 115.37 124.490009 115.130008 124.16334 114.80667 124.00001 114.4 124.00001V124ZM114.4 123.35C115.066669 123.35 115.590007 123.566669 115.97 124 116.35 124.433338 116.54 125.03333 116.54 125.8 116.54 126.56667 116.35 127.16667 115.97 127.600009 115.590007 128.03334 115.066669 128.25 114.4 128.25 113.73334 128.25 113.21 128.03333 112.83 127.6 112.450008 127.166667 112.26 126.566669 112.26 125.799999 112.26 125.033329 112.450008 124.43333 112.83 123.99999 113.21 123.56666 113.73334 123.34999 114.4 123.34999V123.35Z" fill-opacity=".4" />
<path transform="matrix(.7523631,0,0,.7464614,-2.25,-.74890139)" d="M117.7 128.1V123.43001H120.99V124.04001H118.47V128.09001L117.7 128.1Z" fill-opacity=".4" />
<path transform="matrix(.7523631,0,0,.7464614,-2.25,-.74890139)" d="M121.9 127.2C122.340007 127.439998 122.77667 127.56 123.21 127.56 123.61667 127.56 123.96667 127.44333 124.26 127.21 124.55334 126.97 124.72667 126.54667 124.78 125.94H122.409999V125.33H124.74999C124.71666 125.03667 124.58999 124.736667 124.369998 124.43 124.149997 124.11667 123.76333 123.96 123.20999 123.96 122.783329 123.96 122.34666 124.08 121.899997 124.32V123.6C122.33333 123.40666 122.783329 123.31 123.24999 123.31 123.976657 123.31 124.54999 123.53 124.96999 123.97 125.38999 124.41 125.59999 125.00667 125.59999 125.76 125.59999 126.50667 125.39666 127.10334 124.98999 127.55 124.58332 127.990009 124.02332 128.21 123.30999 128.21 122.783329 128.21 122.31666 128.11 121.90999 127.91L121.9 127.2Z" fill-opacity=".4" />
<path transform="matrix(.7523631,0,0,.7464614,-2.25,-.74890139)" d="M127 127.1H127.88V128.16H127Z" fill-opacity=".4" />
<path transform="matrix(.7523631,0,0,.7464614,-2.25,-.74890139)" d="M130.4 127.4V129.88H129.62999V123.44H130.4V124.15C130.56 123.87 130.76334 123.66334 131.01 123.53 131.25666 123.39667 131.54999 123.33 131.89 123.33 132.45667 123.33 132.91667 123.55667 133.27 124.01 133.62334 124.46333 133.8 125.05334 133.8 125.78 133.8 126.51333 133.62334 127.10333 133.27 127.549999 132.91667 128.00333 132.45667 128.23 131.89 128.23 131.55 128.23 131.25667 128.16333 131.01 128.03 130.76334 127.89667 130.56 127.69 130.4 127.409999V127.4ZM133.01 125.770008C133.01 125.20334 132.89333 124.763339 132.65999 124.450008 132.42665 124.130008 132.10999 123.97 131.70999 123.97 131.30333 123.97 130.98332 124.130008 130.74999 124.450008 130.51665 124.770008 130.39998 125.21001 130.39998 125.770008 130.39998 126.33667 130.51665 126.78001 130.74999 127.100009 130.98332 127.420009 131.30333 127.58001 131.70999 127.58001 132.11666 127.58001 132.43332 127.420009 132.65999 127.100009 132.89333 126.78001 133.01 126.33667 133.01 125.770008Z" fill-opacity=".4" />
<path transform="matrix(.7523631,0,0,.7464614,-2.25,-.74890139)" d="M135.5 125.8C135.5 126.45334 135.6 126.920009 135.8 127.200008 136 127.47334 136.27335 127.61001 136.62001 127.61001 136.89334 127.61001 137.18668 127.37668 137.50002 126.91001V124.69001C137.18668 124.22334 136.89334 123.99001 136.62001 123.99001 136.28002 123.99001 136.00669 124.13001 135.8 124.41001 135.6 124.68335 135.5 125.14668 135.5 125.80001V125.8ZM137.5 129.90001V127.53001C137.34 127.79001 137.17 127.973339 136.99 128.08 136.81 128.18668 136.60334 128.24 136.37001 128.24 135.90335 128.24 135.51001 128.02667 135.19002 127.600009 134.87003 127.16667 134.71002 126.57001 134.71002 125.810009 134.71002 125.043338 134.87003 124.44334 135.19002 124.01 135.5167 123.57 135.91002 123.35 136.37001 123.35 136.60335 123.35 136.81002 123.403339 136.99 123.51 137.17667 123.61667 137.34667 123.8 137.5 124.060009V121.91H138.27V124.060009C138.43001 123.8 138.6 123.61667 138.78 123.51 138.96666 123.403339 139.17333 123.35 139.4 123.35 139.86666 123.35 140.26 123.57 140.57999 124.01 140.90666 124.450008 141.06999 125.05 141.06999 125.810009 141.06999 126.576679 140.90666 127.17334 140.57999 127.600009 140.26 128.02667 139.86666 128.24 139.4 128.24 139.16666 128.24 138.95999 128.18668 138.78 128.08 138.59999 127.973339 138.43 127.79 138.27 127.53V129.9L137.5 129.90001ZM140.27 125.80001C140.27 125.146678 140.17 124.68334 139.97 124.41001 139.77 124.13001 139.5 123.99001 139.16 123.99001 138.88668 123.99001 138.59334 124.22334 138.28 124.69001V126.91001C138.59334 127.37668 138.88668 127.61001 139.16 127.61001 139.5 127.61001 139.77 127.47334 139.97 127.200008 140.17 126.920009 140.27 126.45334 140.27 125.8V125.80001Z" fill-opacity=".4" />
</g>
<g clip-path="url(#clip_8)">
</g>
<g clip-path="url(#clip_9)">
<g clip-path="url(#clip_10)">
</g>
</g>
<g clip-path="url(#clip_11)">
</g>
<g clip-path="url(#clip_12)">
<g clip-path="url(#clip_13)">
</g>
</g>
<g clip-path="url(#clip_14)">
</g>
<g clip-path="url(#clip_15)">
</g>
<g clip-path="url(#clip_16)">
</g>
<g clip-path="url(#clip_17)">
</g>
<g clip-path="url(#clip_18)">
</g>
<g clip-path="url(#clip_19)">
<g clip-path="url(#clip_20)">
</g>
</g>
<g clip-path="url(#clip_21)">
</g>
<g clip-path="url(#clip_22)">
</g>
<g clip-path="url(#clip_23)">
</g>
<g clip-path="url(#clip_24)">
</g>
<g clip-path="url(#clip_25)">
</g>
<g clip-path="url(#clip_26)">
</g>
<g clip-path="url(#clip_27)">
</g>
</g>
</svg>