<svg xmlns="http://www.w3.org/2000/svg" xmlns:xlink="http://www.w3.org/1999/xlink" version="1.1" width="730" height="303" viewBox="0 0 243.47042 100.86279" fill="#e1effd">
<defs>
<clipPath id="clip_1">
<path transform="matrix(1,0,0,-1,-175.52959,357.65449)" d="M175.52959 256.7917H419V357.65449H175.52959Z" clip-rule="evenodd" />
</clipPath>
<clipPath id="clip_2">
<path transform="matrix(.24,0,0,.24,-175.52959,-484.2655)" d="M118.75 118.75H2362.793V3390.8204H118.75Z" clip-rule="evenodd" />
</clipPath>
<clipPath id="clip_3">
<path transform="matrix(.24,0,0,.24,-175.52959,-484.2655)" d="M118.75 118.75H2362.793V3390.8204H118.75Z" />
</clipPath>
<clipPath id="clip_4">
<path transform="matrix(.24,0,0,.24,-175.52959,-484.2655)" d="M584.375 170.3125C584.37496 167.20449 584.96969 164.21477 586.15908 161.34334 587.3484 158.47193 589.04196 155.93737 591.2396 153.73969 593.43728 151.54199 595.9718 149.84845 598.84329 148.65906 601.7147 147.46968 604.70449 146.875 607.8125 146.875 610.9205 146.875 613.91018 147.46968 616.78158 148.65906 619.65298 149.84845 622.18759 151.54199 624.38528 153.73969 626.58297 155.93737 628.2765 158.47193 629.4659 161.34334 630.6553 164.21477 631.24996 167.20449 631.25 170.3125 631.24996 173.4205 630.6553 176.41022 629.4659 179.28163 628.2765 182.15305 626.58297 184.6876 624.38528 186.88532 622.18759 189.083 619.65298 190.77652 616.78158 191.96593 613.91018 193.1553 610.9205 193.74999 607.8125 193.75 604.70449 193.74999 601.7147 193.15529 598.84329 191.9659 595.9718 190.77652 593.43728 189.083 591.2396 186.88532 589.04196 184.6876 587.3484 182.15305 586.15908 179.28163 584.96969 176.41022 584.37496 173.4205 584.375 170.3125Z" />
</clipPath>
<clipPath id="clip_5">
<path transform="matrix(.24,0,0,.24,-175.52959,-484.2655)" d="M118.75 118.75H2362.793V3390.8204H118.75Z" clip-rule="evenodd" />
</clipPath>
<clipPath id="clip_6">
<path transform="matrix(.24,0,0,.24,-175.52959,-484.2655)" d="M712.5 275H1209.375V453.125H712.5Z" clip-rule="evenodd" />
</clipPath>
<clipPath id="clip_7">
<path transform="matrix(.24,0,0,.24,-175.52959,-484.2655)" d="M1271.875 271.875H1771.875V456.25H1271.875Z" clip-rule="evenodd" />
</clipPath>
<clipPath id="clip_8">
<path transform="matrix(.24,0,0,.24,-175.52959,-484.2655)" d="M118.75 118.75H2362.793V3390.8204H118.75Z" clip-rule="evenodd" />
</clipPath>
<clipPath id="clip_9">
<path transform="matrix(.24,0,0,.24,-175.52959,-484.2655)" d="M118.75 118.75H2362.793V3390.8204H118.75Z" />
</clipPath>
<clipPath id="clip_10">
<path transform="matrix(.24,0,0,.24,-175.52959,-484.2655)" d="M584.375 1148.4375C584.37496 1145.3295 584.96969 1142.3396 586.15908 1139.4682 587.3484 1136.5967 589.04196 1134.0623 591.2396 1131.8646 593.43728 1129.6669 595.9718 1127.9734 598.84329 1126.784 601.7147 1125.5947 604.70449 1125 607.8125 1125 610.9205 1125 613.91018 1125.5947 616.78158 1126.784 619.65298 1127.9734 622.18759 1129.6669 624.38528 1131.8646 626.58297 1134.0623 628.2765 1136.5967 629.4659 1139.4682 630.6553 1142.3396 631.24996 1145.3295 631.25 1148.4375 631.24996 1151.5453 630.6553 1154.535 629.4659 1157.4065 628.2765 1160.2778 626.58297 1162.8124 624.38528 1165.0103 622.18759 1167.2079 619.65298 1168.9014 616.78158 1170.0907 613.91018 1171.2802 610.9205 1171.8749 607.8125 1171.875 604.70449 1171.8749 601.7147 1171.2802 598.84329 1170.0907 595.9718 1168.9014 593.43728 1167.2079 591.2396 1165.0103 589.04196 1162.8124 587.3484 1160.2778 586.15908 1157.4065 584.96969 1154.535 584.37496 1151.5453 584.375 1148.4375Z" />
</clipPath>
<clipPath id="clip_11">
<path transform="matrix(.24,0,0,.24,-175.52959,-484.2655)" d="M118.75 118.75H2362.793V3390.8204H118.75Z" clip-rule="evenodd" />
</clipPath>
<clipPath id="clip_12">
<path transform="matrix(.24,0,0,.24,-175.52959,-484.2655)" d="M806.25 1378.125H1678.125V1953.125H806.25Z" clip-rule="evenodd" />
</clipPath>
<clipPath id="clip_13">
<path transform="matrix(.24,0,0,.24,-175.52959,-484.2655)" d="M806.25 1378.1338H871.42227V1447.6416H806.25Z" clip-rule="evenodd" />
</clipPath>
<clipPath id="clip_14">
<path transform="matrix(.24,0,0,.24,-175.52959,-484.2655)" d="M826.13906 1489.4097H878.2332V1558.9179H826.13906Z" clip-rule="evenodd" />
</clipPath>
<clipPath id="clip_15">
<path transform="matrix(.24,0,0,.24,-175.52959,-484.2655)" d="M819.42587 1613.6746H875.8794V1683.1825H819.42587Z" clip-rule="evenodd" />
</clipPath>
<clipPath id="clip_16">
<path transform="matrix(.24,0,0,.24,-175.52959,-484.2655)" d="M806.25 1378.125H1678.125V1953.125H806.25Z" clip-rule="evenodd" />
</clipPath>
<clipPath id="clip_17">
<path transform="matrix(.24,0,0,.24,-175.52959,-484.2655)" d="M759.375 2046.875H868.75V2343.75H759.375Z" clip-rule="evenodd" />
</clipPath>
<clipPath id="clip_18">
<path transform="matrix(.24,0,0,.24,-175.52959,-484.2655)" d="M118.75 118.75H2362.793V3390.8204H118.75Z" clip-rule="evenodd" />
</clipPath>
<path id="font_19_20" d="M.1171875 .59716799 .2783203 .67578127H.2944336V.11669922C.2944336 .079589847 .29597984 .056477865 .29907228 .04736328 .3021647 .0382487 .30859376 .03125 .31835938 .026367188 .328125 .021484375 .34798179 .018717448 .3779297 .018066407V0H.12890625V.018066407C.16015625 .018717448 .18033855 .021402995 .18945313 .026123047 .1985677 .0308431 .20491536 .037190755 .2084961 .045166017 .21207683 .053141279 .21386719 .07698568 .21386719 .11669922V.4741211C.21386719 .52229818 .21223958 .55322268 .20898438 .56689456 .20670574 .5773112 .20255535 .58496096 .1965332 .58984377 .19051107 .59472659 .18326824 .59716799 .17480469 .59716799 .16276042 .59716799 .1459961 .5921224 .12451172 .58203127L.1171875 .59716799Z" />
<clipPath id="clip_20">
<path transform="matrix(.24,0,0,.24,-175.52959,-484.2655)" d="M931.25 2053.125H1040.625V2343.75H931.25Z" clip-rule="evenodd" />
</clipPath>
<clipPath id="clip_21">
<path transform="matrix(.24,0,0,.24,-175.52959,-484.2655)" d="M118.75 118.75H2362.793V3390.8204H118.75Z" clip-rule="evenodd" />
</clipPath>
<path id="font_19_21" d="M.4584961 .12792969 .41210938 0H.021484375V.018096924C.13639324 .12308756 .21728516 .20883687 .26416017 .27534486 .31103517 .341863 .33447267 .40267436 .33447267 .45777894 .33447267 .49983216 .3216146 .53438827 .29589845 .56144717 .27018229 .58851626 .23942058 .6020508 .20361328 .6020508 .1710612 .6020508 .1418457 .5924886 .1159668 .57336428 .09008789 .5542399 .07096354 .5262044 .05859375 .4892578H.040527345C.048665365 .5493266 .06958008 .59542849 .103271488 .6275635 .13696289 .6597087 .17903646 .67578127 .22949219 .67578127 .28320313 .67578127 .3280436 .6585286 .36401368 .62402346 .39998374 .58951827 .41796876 .5488281 .41796876 .5019531 .41796876 .46842448 .41015626 .43489585 .39453126 .4013672 .37044273 .3486328 .33138023 .292806 .27734376 .23388672 .19628906 .14534505 .14567058 .09195963 .12548828 .07373047H.29833985C.3334961 .07373047 .3581543 .075042728 .37231446 .07766724 .3864746 .08030192 .3992513 .085642497 .41064454 .093688968 .42203776 .101735439 .43196617 .11314901 .4404297 .12792969H.4584961Z" />
<clipPath id="clip_22">
<path transform="matrix(.24,0,0,.24,-175.52959,-484.2655)" d="M1103.125 2068.75H1215.625V2343.75H1103.125Z" clip-rule="evenodd" />
</clipPath>
<clipPath id="clip_23">
<path transform="matrix(.24,0,0,.24,-175.52959,-484.2655)" d="M118.75 118.75H2362.793V3390.8204H118.75Z" clip-rule="evenodd" />
</clipPath>
<path id="font_19_22" d="M.05078125 .5366211C.06966146 .58121749 .09350586 .6155599 .12231445 .63964846 .15112305 .663737 .18701172 .67578127 .22998047 .67578127 .28304038 .67578127 .32373048 .6585541 .35205079 .62409976 .37353517 .5984141 .38427735 .5709432 .38427735 .541687 .38427735 .49358116 .3540039 .44384767 .29345704 .39248658 .33414714 .37651573 .36490885 .35370384 .3857422 .3240509 .40657554 .29440818 .4169922 .2595469 .4169922 .21946717 .4169922 .16211446 .39876304 .11242167 .3623047 .070388797 .31477867 .01565043 .24593099-.01171875 .15576172-.01171875 .11116537-.01171875 .08081055-.006184896 .064697269 .0048828127 .048583986 .015950522 .040527345 .027832032 .040527345 .040527345 .040527345 .04996745 .044352216 .05826823 .052001954 .06542969 .05965169 .07259115 .068847659 .076171878 .079589847 .076171878 .08772787 .076171878 .09602865 .07486979 .10449219 .072265628 .11002604 .07063802 .122558597 .064697269 .14208985 .05444336 .1616211 .044189454 .1751302 .038085939 .18261719 .036132814 .19466146 .032552083 .20751953 .030761719 .2211914 .030761719 .25439454 .030761719 .28328453 .043640138 .30786134 .06939697 .33243815 .09515381 .34472657 .12564087 .34472657 .16085816 .34472657 .18661499 .33902995 .21172078 .32763673 .23617554 .3191732 .2544352 .30989585 .2682902 .2998047 .27774049 .28580729 .29079185 .26660157 .3026123 .2421875 .3132019 .21777344 .32380168 .1928711 .32910157 .16748047 .32910157H.15185547V.34375C.17757161 .34700523 .20336914 .35628257 .22924805 .37158204 .25512696 .3868815 .27392579 .40527345 .28564454 .4267578 .29736329 .4482422 .30322267 .47184245 .30322267 .4975586 .30322267 .5310872 .2927246 .5581868 .27172853 .5788574 .25073243 .599528 .22460938 .6098633 .19335938 .6098633 .14290364 .6098633 .100748699 .58284506 .06689453 .5288086L.05078125 .5366211Z" />
<clipPath id="clip_24">
<path transform="matrix(.24,0,0,.24,-175.52959,-484.2655)" d="M1278.125 2090.625H1384.375V2343.75H1278.125Z" clip-rule="evenodd" />
</clipPath>
<clipPath id="clip_25">
<path transform="matrix(.24,0,0,.24,-175.52959,-484.2655)" d="M118.75 118.75H2362.793V3390.8204H118.75Z" clip-rule="evenodd" />
</clipPath>
<path id="font_19_23" d="M.46533204 .24414063V.17480469H.37646485V0H.29589845V.17480469H.015625V.23730469L.3227539 .67578127H.37646485V.24414063H.46533204M.29589845 .24414063V.5727539L.06347656 .24414063H.29589845Z" />
<clipPath id="clip_26">
<path transform="matrix(.24,0,0,.24,-175.52959,-484.2655)" d="M1446.875 2106.25H1556.25V2343.75H1446.875Z" clip-rule="evenodd" />
</clipPath>
<clipPath id="clip_27">
<path transform="matrix(.24,0,0,.24,-175.52959,-484.2655)" d="M118.75 118.75H2362.793V3390.8204H118.75Z" clip-rule="evenodd" />
</clipPath>
<path id="font_19_24" d="M.43408204 .6621094 .3959961 .578125H.19677735L.15332031 .49023438C.23958333 .47753907 .30794273 .44547526 .35839845 .39404298 .40169273 .34977214 .42333985 .2976888 .42333985 .23779297 .42333985 .20296224 .41625978 .17073567 .4020996 .14111328 .38793946 .11149088 .3701172 .08626302 .3486328 .06542969 .32714845 .044596357 .30322267 .027832032 .27685548 .015136719 .23942058-.002766927 .20100911-.01171875 .1616211-.01171875 .121907558-.01171875 .09301758-.004964193 .07495117 .008544922 .056884767 .022054038 .047851564 .036946615 .047851564 .053222658 .047851564 .06233724 .05159505 .07039388 .05908203 .07739258 .06656901 .08439127 .07600912 .087890628 .087402347 .087890628 .09586588 .087890628 .103271488 .08658854 .10961914 .083984378 .1159668 .08138021 .12679036 .07470703 .14208985 .063964847 .1665039 .04703776 .19124349 .03857422 .2163086 .03857422 .25439454 .03857422 .2878418 .052978517 .3166504 .08178711 .34545899 .1105957 .35986329 .14567058 .35986329 .18701172 .35986329 .22705078 .34700523 .2644043 .32128907 .29907228 .2955729 .33374024 .26009117 .3605143 .21484375 .37939454 .17936199 .39404298 .13102214 .4025065 .06982422 .40478517L.19677735 .6621094H.43408204Z" />
<clipPath id="clip_28">
<path transform="matrix(.24,0,0,.24,-175.52959,-484.2655)" d="M1618.75 2134.375H1725V2343.75H1618.75Z" clip-rule="evenodd" />
</clipPath>
<clipPath id="clip_29">
<path transform="matrix(.24,0,0,.24,-175.52959,-484.2655)" d="M118.75 118.75H2362.793V3390.8204H118.75Z" clip-rule="evenodd" />
</clipPath>
<path id="font_19_25" d="M.4482422 .67578127V.65771487C.40527345 .6534831 .37019859 .6449382 .34301759 .6320801 .31583659 .619222 .2889811 .5996094 .26245118 .5732422 .23592122 .546875 .21394857 .51749679 .1965332 .48510743 .17911785 .4527181 .16455078 .41422526 .15283203 .3696289 .19970703 .40185548 .2467448 .41796876 .2939453 .41796876 .33919273 .41796876 .37841798 .3997396 .4116211 .36328126 .44482423 .3268229 .46142579 .2799479 .46142579 .22265625 .46142579 .1673177 .44466148 .11686198 .4111328 .07128906 .37076823 .015950522 .3173828-.01171875 .25097657-.01171875 .20572917-.01171875 .1673177 .0032552083 .13574219 .033203126 .07389323 .09147135 .04296875 .16699219 .04296875 .25976563 .04296875 .3190104 .05485026 .37532554 .07861328 .42871095 .102376308 .48209635 .13631185 .52945968 .18041992 .5708008 .224528 .6121419 .2667643 .63997396 .3071289 .6542969 .3474935 .6686198 .38509117 .67578127 .41992188 .67578127H.4482422M.14453125 .33398438C.13867188 .29003907 .13574219 .25455729 .13574219 .22753906 .13574219 .19628906 .14152019 .16235352 .15307617 .12573242 .16463216 .08911133 .18180339 .060058595 .20458985 .03857422 .2211914 .02327474 .2413737 .015625 .26513673 .015625 .29345704 .015625 .31876628 .028971354 .34106446 .055664064 .36336265 .08235677 .37451173 .12044271 .37451173 .16992188 .37451173 .22558594 .363444 .27376304 .3413086 .31445313 .3191732 .35514323 .2877604 .37548829 .24707031 .37548829 .23470052 .37548829 .22143555 .37288413 .20727539 .36767579 .19311524 .36246745 .17220052 .35123698 .14453125 .33398438Z" />
<clipPath id="clip_30">
<path transform="matrix(.24,0,0,.24,-175.52959,-484.2655)" d="M0 62.5H393.75V100H0Z" clip-rule="evenodd" />
</clipPath>
<clipPath id="clip_31">
<path transform="matrix(.24,0,0,.24,-175.52959,-484.2655)" d="M393.75 62.5H2478.125V100H393.75Z" clip-rule="evenodd" />
</clipPath>
<clipPath id="clip_32">
<path transform="matrix(.24,0,0,.24,-175.52959,-484.2655)" d="M0 3409.375H2271.875V3446.875H0Z" clip-rule="evenodd" />
</clipPath>
<clipPath id="clip_33">
<path transform="matrix(.24,0,0,.24,-175.52959,-484.2655)" d="M2271.875 3409.375H2478.125V3446.875H2271.875Z" clip-rule="evenodd" />
</clipPath>
</defs>
<g clip-path="url(#clip_1)">
<g clip-path="url(#clip_2)">
</g>
<g clip-path="url(#clip_3)">
<g clip-path="url(#clip_4)">
</g>
</g>
<g clip-path="url(#clip_5)">
</g>
<g clip-path="url(#clip_6)">
</g>
<g clip-path="url(#clip_7)">
</g>
<g clip-path="url(#clip_8)">
</g>
<g clip-path="url(#clip_9)">
<g clip-path="url(#clip_10)">
</g>
</g>
<g clip-path="url(#clip_11)">
</g>
<g clip-path="url(#clip_12)">
</g>
<g clip-path="url(#clip_13)">
</g>
<g clip-path="url(#clip_14)">
</g>
<g clip-path="url(#clip_15)">
</g>
<g clip-path="url(#clip_16)">
</g>
<g clip-path="url(#clip_17)">
<path transform="matrix(.74556288,0,0,.7527761,6.720413,7)" d="M30.7083 17.1001 35.2083 11.1001 30.7083 26.1001 26.2083 11.1001 30.7083 17.1001Z" fill="#ffc34e" />
<path transform="matrix(.74556288,0,0,.7527761,6.720413,7)" stroke-width="1" stroke-linecap="butt" stroke-linejoin="round" fill="none" stroke="#ffc34e" d="M30.7083 19.9V0" />
<path transform="matrix(.74556288,0,0,.7527761,6.720413,7)" d="M.375 55.3815H34.1528V88.6593C34.1528 91.7357 31.655102 94.2334 28.578701 94.2334H5.9491C2.8727 94.2334 .375 91.735698 .375 88.6593V55.3815Z" fill="#54c4ff" fill-opacity=".5" />
<path transform="matrix(.74556288,0,0,.7527761,6.720413,7)" stroke-width=".75" stroke-linecap="round" stroke-linejoin="round" fill="none" stroke="#e1effd" d="M16.3009 28.6778V3.0852" />
<path transform="matrix(.74556288,0,0,.7527761,6.720413,7)" d="M7.8194 19.3074H24.782399V56.3444H7.8194Z" fill="#688aa7" />
<path transform="matrix(.74556288,0,0,.7527761,6.720413,7)" stroke-width=".75" stroke-linecap="round" stroke-linejoin="round" fill="none" stroke="#e1effd" d="M.375 28.6778H34.1528V88.7334C34.1528 91.7689 31.688302 94.2334 28.652802 94.2334H5.875C2.8395 94.2334 .375 91.7689 .375 88.7334V28.6778Z" />
</g>
<g clip-path="url(#clip_18)">
<use data-text="1" xlink:href="#font_19_20" transform="matrix(10.995,0,0,-10.995,17.114945,95.484378)" />
</g>
<g clip-path="url(#clip_20)">
<path transform="matrix(.74556288,0,0,.75107118,47.970415,8.498322)" d="M30.7083 17.1001 35.2083 11.1001 30.7083 26.1001 26.2083 11.1001 30.7083 17.1001Z" fill="#ffc34e" />
<path transform="matrix(.74556288,0,0,.75107118,47.970415,8.498322)" stroke-width="1" stroke-linecap="butt" stroke-linejoin="round" fill="none" stroke="#ffc34e" d="M30.7083 19.9V0" />
<path transform="matrix(.74556288,0,0,.75107118,47.970415,8.498322)" stroke-width=".75" stroke-linecap="round" stroke-linejoin="round" fill="none" stroke="#e1effd" d="M16.3009 33.6778V8.0852" />
<path transform="matrix(.74556288,0,0,.75107118,47.970415,8.498322)" d="M7.8194 24.3074H24.782399V61.3444H7.8194Z" fill="#688aa7" />
<path transform="matrix(.74556288,0,0,.75107118,47.970415,8.498322)" d="M.375 46.5667H34.1528V86.397708C34.1528 89.741107 31.438403 92.455608 28.094902 92.455608H6.4329C3.0895 92.455608 .375 89.7412 .375 86.397708V46.566705 46.5667Z" fill="#54c4ff" fill-opacity=".5" />
<path transform="matrix(.74556288,0,0,.75107118,47.970415,8.498322)" stroke-width=".75" stroke-linecap="round" stroke-linejoin="round" fill="none" stroke="#e1effd" d="M.375 26.9H34.1528V86.9556C34.1528 89.9911 31.688302 92.4556 28.652802 92.4556H5.875C2.8395 92.4556 .375 89.9911 .375 86.9556V26.9Z" />
</g>
<g clip-path="url(#clip_21)">
<use data-text="2" xlink:href="#font_19_21" transform="matrix(10.995,0,0,-10.995,58.50557,95.484378)" />
</g>
<g clip-path="url(#clip_22)">
<path transform="matrix(.7668646,0,0,.75022289,89.22041,12.2465519)" stroke-width=".75" stroke-linecap="round" stroke-linejoin="round" fill="none" stroke="#e1effd" d="M16.3009 33.6778V8.0852" />
<path transform="matrix(.7668646,0,0,.75022289,89.22041,12.2465519)" d="M7.8194 24.3074H24.782399V61.3444H7.8194Z" fill="#688aa7" />
<path transform="matrix(.7668646,0,0,.75022289,89.22041,12.2465519)" d="M.375 34.9H34.1528V81.0768C34.1528 84.6586 31.2448 87.566699 27.6629 87.566699H6.8649C3.2831002 87.566699 .375 84.6587 .375 81.0768V34.899999 34.9Z" fill="#54c4ff" fill-opacity=".5" />
<path transform="matrix(.7668646,0,0,.75022289,89.22041,12.2465519)" stroke-width=".75" stroke-linecap="round" stroke-linejoin="round" fill="none" stroke="#e1effd" d="M.375 22.0111H34.1528V82.066699C34.1528 85.102199 31.688302 87.566699 28.652802 87.566699H5.875C2.8395 87.566699 .375 85.102199 .375 82.066699V22.0111Z" />
<path transform="matrix(.7668646,0,0,.75022289,89.22041,12.2465519)" d="M30.7083 17.1001 35.2083 11.1001 30.7083 26.1001 26.2083 11.1001 30.7083 17.1001Z" fill="#ffc34e" />
<path transform="matrix(.7668646,0,0,.75022289,89.22041,12.2465519)" stroke-width="1" stroke-linecap="butt" stroke-linejoin="round" fill="none" stroke="#ffc34e" d="M30.7083 19.9V0" />
</g>
<g clip-path="url(#clip_23)">
<use data-text="3" xlink:href="#font_19_22" transform="matrix(10.995,0,0,-10.995,99.896198,95.484378)" />
</g>
<g clip-path="url(#clip_24)">
<path transform="matrix(.7385352,0,0,.75512519,131.22042,17.496796)" stroke-width=".75" stroke-linecap="round" stroke-linejoin="round" fill="none" stroke="#e1effd" d="M16.3009 33.6778V8.0852" />
<path transform="matrix(.7385352,0,0,.75512519,131.22042,17.496796)" d="M7.8194 24.3074H24.782399V61.3444H7.8194Z" fill="#688aa7" />
<path transform="matrix(.7385352,0,0,.75512519,131.22042,17.496796)" d="M.375 24.3074H34.1528V73.3663C34.1528 77.051 31.1613 80.0425 27.4766 80.0425H7.0512C3.3665 80.0425 .375 77.051 .375 73.3663V24.3074Z" fill="#54c4ff" fill-opacity=".5" />
<path transform="matrix(.7385352,0,0,.75512519,131.22042,17.496796)" stroke-width=".75" stroke-linecap="round" stroke-linejoin="round" fill="none" stroke="#e1effd" d="M.375 14.487H34.1528V74.5426C34.1528 77.5781 31.688302 80.0426 28.652802 80.0426H5.875C2.8395 80.0426 .375 77.5781 .375 74.5426V14.487Z" />
<path transform="matrix(.7385352,0,0,.75512519,131.22042,17.496796)" d="M27.8194 17.1001 32.3194 11.1001 27.8194 26.1001 23.3194 11.1001 27.8194 17.1001Z" fill="#ffc34e" />
<path transform="matrix(.7385352,0,0,.75512519,131.22042,17.496796)" stroke-width="1" stroke-linecap="butt" stroke-linejoin="round" fill="none" stroke="#ffc34e" d="M27.8194 19.9V0" />
</g>
<g clip-path="url(#clip_25)">
<use data-text="4" xlink:href="#font_19_23" transform="matrix(10.995,0,0,-10.995,141.029,95.484378)" />
</g>
<g clip-path="url(#clip_26)">
<path transform="matrix(.7602568,0,0,.75220987,171.72042,21.244202)" stroke-width=".75" stroke-linecap="round" stroke-linejoin="round" fill="none" stroke="#e1effd" d="M16.3009 33.6778V8.0852" />
<path transform="matrix(.7602568,0,0,.75220987,171.72042,21.244202)" d="M7.8194 24.3074H24.782399V61.3444H7.8194Z" fill="#688aa7" />
<path transform="matrix(.7602568,0,0,.75220987,171.72042,21.244202)" d="M.375 19.6408H34.1528V68.6997C34.1528 72.3844 31.1613 75.3759 27.4766 75.3759H7.0512C3.3665 75.3759 .375 72.3844 .375 68.6997V19.6408Z" fill="#54c4ff" fill-opacity=".5" />
<path transform="matrix(.7602568,0,0,.75220987,171.72042,21.244202)" stroke-width=".75" stroke-linecap="round" stroke-linejoin="round" fill="none" stroke="#e1effd" d="M.375 9.8204H34.1528V69.876C34.1528 72.9115 31.688302 75.376 28.652802 75.376H5.875C2.8395 75.376 .375 72.9115 .375 69.876V9.8204Z" />
<path transform="matrix(.7602568,0,0,.75220987,171.72042,21.244202)" d="M27.8194 17.1001 32.3194 11.1001 27.8194 26.1001 23.3194 11.1001 27.8194 17.1001Z" fill="#ffc34e" />
<path transform="matrix(.7602568,0,0,.75220987,171.72042,21.244202)" stroke-width="1" stroke-linecap="butt" stroke-linejoin="round" fill="none" stroke="#ffc34e" d="M27.8194 19.9V0" />
</g>
<g clip-path="url(#clip_27)">
<use data-text="5" xlink:href="#font_19_24" transform="matrix(10.995,0,0,-10.995,181.91573,95.484378)" />
</g>
<g clip-path="url(#clip_28)">
<path transform="matrix(.7385352,0,0,.757687,212.97042,27.990052)" stroke-width=".75" stroke-linecap="round" stroke-linejoin="round" fill="none" stroke="#e1effd" d="M16.3009 34.3806V8.788" />
<path transform="matrix(.7385352,0,0,.757687,212.97042,27.990052)" d="M7.8194 25.0102H24.782399V62.0472H7.8194Z" fill="#688aa7" />
<path transform="matrix(.7385352,0,0,.757687,212.97042,27.990052)" d="M.375 10.1954H34.1528V59.2543C34.1528 62.939 31.1613 65.9305 27.4766 65.9305H7.0512C3.3665 65.9305 .375 62.938997 .375 59.254297V10.1954Z" fill="#54c4ff" fill-opacity=".5" />
<path transform="matrix(.7385352,0,0,.757687,212.97042,27.990052)" stroke-width=".75" stroke-linecap="round" stroke-linejoin="round" fill="none" stroke="#e1effd" d="M.375 .375H34.1528V60.4306C34.1528 63.4661 31.688302 65.9306 28.652802 65.9306H5.875C2.8395 65.9306 .375 63.466104 .375 60.430604V.375Z" />
<path transform="matrix(.7385352,0,0,.757687,212.97042,27.990052)" d="M27.8194 22.4695 32.3194 16.4695 27.8194 31.4695 23.3194 16.4695 27.8194 22.4695Z" fill="#ffc34e" />
<path transform="matrix(.7385352,0,0,.757687,212.97042,27.990052)" stroke-width="1" stroke-linecap="butt" stroke-linejoin="round" fill="none" stroke="#ffc34e" d="M27.8194 25.2695V5.3694" />
</g>
<g clip-path="url(#clip_29)">
<use data-text="6" xlink:href="#font_19_25" transform="matrix(10.995,0,0,-10.995,222.80245,95.484378)" />
</g>
<g clip-path="url(#clip_30)">
</g>
<g clip-path="url(#clip_31)">
</g>
<g clip-path="url(#clip_32)">
</g>
<g clip-path="url(#clip_33)">
</g>
</g>
</svg>